<?xml version="1.0" encoding="UTF-8"?>
<svg version="1.1" xmlns="http://www.w3.org/2000/svg" width="652" height="260">
<path d="M0 0 C215.16 0 430.32 0 652 0 C652 85.8 652 171.6 652 260 C436.84 260 221.68 260 0 260 C0 174.2 0 88.4 0 0 Z " fill="#FCFDFE" transform="translate(0,0)"/>
<path d="M0 0 C0.96679688 0.12117187 1.93359375 0.24234375 2.9296875 0.3671875 C10.44835902 1.41085578 16.37560971 4.4051642 23 8 C24.80855385 8.92442794 26.62081422 9.84165711 28.4375 10.75 C29.58025391 11.33007812 29.58025391 11.33007812 30.74609375 11.921875 C33.12646079 13.06049078 35.54059321 14.04573281 38 15 C38 15.66 38 16.32 38 17 C38.886875 17.2475 39.77375 17.495 40.6875 17.75 C44.1806925 19.06818585 46.14491021 20.62860608 49 23 C49.825 23.63679688 50.65 24.27359375 51.5 24.9296875 C56.28766578 28.65508993 60.28220299 32.21997528 64 37 C64.86625 37.845625 65.7325 38.69125 66.625 39.5625 C68.91264001 41.91034106 70.35889517 44.18667743 72 47 C72.66 47.33 73.32 47.66 74 48 C74 48.66 74 49.32 74 50 C74.99 50.33 75.98 50.66 77 51 C82.43499298 59.11625619 86.58535499 68.54264039 89 78 C89.66 78 90.32 78 91 78 C91.19335938 78.74765625 91.38671875 79.4953125 91.5859375 80.265625 C91.84632813 81.25046875 92.10671875 82.2353125 92.375 83.25 C92.63023437 84.22453125 92.88546875 85.1990625 93.1484375 86.203125 C93.85936643 88.89580833 93.85936643 88.89580833 94.98413086 90.75512695 C99.14011496 99.9390428 98.3469299 112.52108295 98.31567383 122.46166992 C98.31249553 124.56546125 98.33617162 126.6678631 98.36132812 128.77148438 C98.46923325 152.38549646 89.19725357 174.07781916 77 194 C76.00416951 195.0041522 75.00367418 196.00368773 74 197 C72.84241761 198.46999016 71.69798804 199.95037695 70.5625 201.4375 C62.89828804 211.05643758 54.44075777 219.43591413 44 226 C42.92234375 226.70253906 41.8446875 227.40507812 40.734375 228.12890625 C35.2197796 231.65962576 30.34094936 234.20952231 24 236 C23.67 236.66 23.34 237.32 23 238 C19.65489648 239.62734766 17.81164166 240 14 240 C14 240.66 14 241.32 14 242 C11.04411977 242.82242663 8.08577429 243.63303812 5.125 244.4375 C3.89136719 244.78264648 3.89136719 244.78264648 2.6328125 245.13476562 C-7.58477837 247.88872566 -17.52092511 248.16153925 -28.0625 248.125 C-29.18205078 248.12886719 -30.30160156 248.13273438 -31.45507812 248.13671875 C-37.72136957 248.12936826 -43.7879835 247.82826887 -50 247 C-50 246.34 -50 245.68 -50 245 C-51.41539062 244.87044922 -51.41539062 244.87044922 -52.859375 244.73828125 C-61.67135158 243.77391835 -68.94590918 241.92955642 -77 238 C-77 237.34 -77 236.68 -77 236 C-77.99 235.8453125 -77.99 235.8453125 -79 235.6875 C-82.83841009 234.80786436 -86.33096691 233.43030104 -90 232 C-90 231.34 -90 230.68 -90 230 C-91.3303125 229.62875 -91.3303125 229.62875 -92.6875 229.25 C-96.18671171 227.92954275 -98.1424877 226.38055048 -101 224 C-101.85078125 223.32582031 -102.7015625 222.65164062 -103.578125 221.95703125 C-111.34432145 215.72363673 -118.87976682 209.62647982 -124 201 C-124.98570717 199.98590859 -125.9856513 198.98544239 -127 198 C-128.07646832 196.54596443 -129.11679545 195.06467411 -130.125 193.5625 C-130.64320313 192.80066406 -131.16140625 192.03882813 -131.6953125 191.25390625 C-132.92757114 189.12512411 -133.5513055 187.40215715 -134 185 C-134.66 185 -135.32 185 -136 185 C-139.42074429 178.55704474 -142.44151024 172.34048857 -144.35546875 165.2890625 C-144.95398522 163.16342217 -145.67841727 161.17263696 -146.5 159.125 C-151.34401656 146.42857765 -152.06493127 133.81037372 -152.125 120.375 C-152.12975342 119.50431885 -152.13450684 118.6336377 -152.1394043 117.73657227 C-152.09897291 101.86201144 -152.09897291 101.86201144 -149 95 C-148.42194376 92.73815611 -147.88143329 90.46644979 -147.375 88.1875 C-147.11460937 87.02605469 -146.85421875 85.86460938 -146.5859375 84.66796875 C-146.29589844 83.34732422 -146.29589844 83.34732422 -146 82 C-145.34 82 -144.68 82 -144 82 C-143.896875 81.195625 -143.79375 80.39125 -143.6875 79.5625 C-142.84899627 75.21752614 -141.47178341 71.16542473 -140 67 C-139.34 67 -138.68 67 -138 67 C-137.89429688 66.28070313 -137.78859375 65.56140625 -137.6796875 64.8203125 C-136.93449582 61.7281953 -135.78674707 59.57843927 -134.125 56.875 C-133.61195313 56.02679688 -133.09890625 55.17859375 -132.5703125 54.3046875 C-131.17671037 52.25935103 -129.77077467 50.70683003 -128 49 C-127.195625 47.7315625 -127.195625 47.7315625 -126.375 46.4375 C-113.19688722 26.27099408 -88.49612832 8.71972301 -65 3 C-63.45784288 2.48062066 -61.9161963 1.95972354 -60.375 1.4375 C-41.30556518 -4.15384663 -19.38739925 -3.38207702 0 0 Z " fill="#1A76BE" transform="translate(184,8)"/>
<path d="M0 0 C14.1772774 -0.0466805 28.35454291 -0.08183655 42.53188133 -0.10362434 C49.11438022 -0.11407927 55.69682762 -0.12826959 62.27929688 -0.15087891 C68.62700535 -0.17254641 74.97466418 -0.18455573 81.32240677 -0.18975449 C83.74900723 -0.19346122 86.17560486 -0.20069911 88.6021843 -0.21146011 C91.99054674 -0.22589404 95.3787018 -0.22798134 98.76708984 -0.22705078 C100.28514977 -0.23783661 100.28514977 -0.23783661 101.83387756 -0.24884033 C102.75376968 -0.246091 103.6736618 -0.24334167 104.62142944 -0.24050903 C105.42338934 -0.24235262 106.22534924 -0.24419621 107.05161095 -0.24609566 C109 0 109 0 111 2 C111.125 5.625 111.125 5.625 111 9 C111.62648438 8.98839844 112.25296875 8.97679687 112.8984375 8.96484375 C113.71570313 8.95582031 114.53296875 8.94679688 115.375 8.9375 C116.18710938 8.92589844 116.99921875 8.91429687 117.8359375 8.90234375 C120 9 120 9 122 10 C122 25.51 122 41.02 122 57 C123.485 57.495 123.485 57.495 125 58 C125 58.66 125 59.32 125 60 C125.556875 60.04125 126.11375 60.0825 126.6875 60.125 C131.80391733 62.06094169 135.2597099 68.49809484 138 73 C140.22942697 79.89228077 139.74407108 88.38928331 137 95 C135.50995051 97.10718171 133.93516445 99.12796941 132.33984375 101.15625 C130.6409022 103.49415208 130 105.09917538 130 108 C130.63317366 111.23449208 130.63317366 111.23449208 132 114 C132.99 114.33 133.98 114.66 135 115 C136.38671875 117.65234375 136.38671875 117.65234375 137.6875 120.9375 C138.12449219 122.01902344 138.56148437 123.10054688 139.01171875 124.21484375 C140 127 140 127 140 129 C140.99 129.33 141.98 129.66 143 130 C143.87890625 131.92578125 143.87890625 131.92578125 144.5625 134.3125 C145.26022879 136.6973922 145.91383942 138.83585466 147.0703125 141.0390625 C148.68863117 144.45249096 148.2972442 147.25472313 148 151 C146.18836733 153.67431489 145.12238923 153.95920359 142 155 C140.0625 155.16796875 140.0625 155.16796875 138 155.1875 C137.319375 155.20167969 136.63875 155.21585938 135.9375 155.23046875 C134 155 134 155 131 153 C130.0246298 150.55433882 129.19624594 148.19830282 128.4375 145.6875 C127.0931921 141.39653576 125.74214457 137.15063938 124 133 C123.34 133 122.68 133 122 133 C122 138.61 122 144.22 122 150 C107.67505516 150.02312005 93.35011473 150.04091336 79.02515507 150.05181217 C72.3742647 150.05704174 65.72339214 150.06414072 59.07250977 150.07543945 C52.65997123 150.08626571 46.24744496 150.09227628 39.83489799 150.09487724 C37.38235722 150.09673197 34.92981715 150.10035347 32.47728157 150.10573006 C29.05523323 150.11293702 25.63323629 150.11399109 22.21118164 150.11352539 C20.6737027 150.1189183 20.6737027 150.1189183 19.10516357 150.12442017 C18.17823196 150.1230455 17.25130035 150.12167084 16.29627991 150.12025452 C15.48602387 150.12117631 14.67576784 150.1220981 13.8409586 150.12304783 C12 150 12 150 11 149 C10.85884839 146.32941149 10.95752893 143.67567762 11 141 C10.28972656 140.93941406 9.57945313 140.87882813 8.84765625 140.81640625 C7.92855469 140.73261719 7.00945312 140.64882812 6.0625 140.5625 C4.68771484 140.44068359 4.68771484 140.44068359 3.28515625 140.31640625 C1 140 1 140 0 139 C-0.09639184 137.20305962 -0.12187425 135.40229107 -0.12025452 133.60276794 C-0.12162918 132.43182587 -0.12300385 131.26088379 -0.12442017 130.05445862 C-0.12082489 128.75830124 -0.11722961 127.46214386 -0.11352539 126.12670898 C-0.11324352 124.75712079 -0.11340125 123.38753244 -0.1139679 122.01794434 C-0.11425588 118.28877052 -0.10835909 114.55962859 -0.10139394 110.83046222 C-0.09516047 106.93735587 -0.09455661 103.04424887 -0.09336853 99.15113831 C-0.09025519 91.77401854 -0.08204178 84.39691351 -0.07201904 77.01980025 C-0.06085797 68.62332457 -0.05534747 60.22684821 -0.05032361 51.83036697 C-0.03985916 34.55356944 -0.02225968 17.27678628 0 0 Z " fill="#1E76BD" transform="translate(83,53)"/>
<path d="M0 0 C14.1772774 -0.0466805 28.35454291 -0.08183655 42.53188133 -0.10362434 C49.11438022 -0.11407927 55.69682762 -0.12826959 62.27929688 -0.15087891 C68.62700535 -0.17254641 74.97466418 -0.18455573 81.32240677 -0.18975449 C83.74900723 -0.19346122 86.17560486 -0.20069911 88.6021843 -0.21146011 C91.99054674 -0.22589404 95.3787018 -0.22798134 98.76708984 -0.22705078 C100.28514977 -0.23783661 100.28514977 -0.23783661 101.83387756 -0.24884033 C102.75376968 -0.246091 103.6736618 -0.24334167 104.62142944 -0.24050903 C105.42338934 -0.24235262 106.22534924 -0.24419621 107.05161095 -0.24609566 C109 0 109 0 111 2 C111.125 5.625 111.125 5.625 111 9 C111.62648438 8.98839844 112.25296875 8.97679687 112.8984375 8.96484375 C113.71570313 8.95582031 114.53296875 8.94679688 115.375 8.9375 C116.18710938 8.92589844 116.99921875 8.91429687 117.8359375 8.90234375 C120 9 120 9 122 10 C122 25.51 122 41.02 122 57 C123.485 57.495 123.485 57.495 125 58 C125 58.66 125 59.32 125 60 C125.556875 60.04125 126.11375 60.0825 126.6875 60.125 C131.80391733 62.06094169 135.2597099 68.49809484 138 73 C140.22942697 79.89228077 139.74407108 88.38928331 137 95 C135.50995051 97.10718171 133.93516445 99.12796941 132.33984375 101.15625 C130.6409022 103.49415208 130 105.09917538 130 108 C130.63317366 111.23449208 130.63317366 111.23449208 132 114 C132.99 114.33 133.98 114.66 135 115 C136.38671875 117.65234375 136.38671875 117.65234375 137.6875 120.9375 C138.12449219 122.01902344 138.56148437 123.10054688 139.01171875 124.21484375 C140 127 140 127 140 129 C140.99 129.33 141.98 129.66 143 130 C143.87890625 131.92578125 143.87890625 131.92578125 144.5625 134.3125 C145.26022879 136.6973922 145.91383942 138.83585466 147.0703125 141.0390625 C148.68863117 144.45249096 148.2972442 147.25472313 148 151 C146.18836733 153.67431489 145.12238923 153.95920359 142 155 C140.0625 155.16796875 140.0625 155.16796875 138 155.1875 C137.319375 155.20167969 136.63875 155.21585938 135.9375 155.23046875 C134 155 134 155 131 153 C130.0246298 150.55433882 129.19624594 148.19830282 128.4375 145.6875 C127.0931921 141.39653576 125.74214457 137.15063938 124 133 C123.34 133 122.68 133 122 133 C122 138.61 122 144.22 122 150 C107.67505516 150.02312005 93.35011473 150.04091336 79.02515507 150.05181217 C72.3742647 150.05704174 65.72339214 150.06414072 59.07250977 150.07543945 C52.65997123 150.08626571 46.24744496 150.09227628 39.83489799 150.09487724 C37.38235722 150.09673197 34.92981715 150.10035347 32.47728157 150.10573006 C29.05523323 150.11293702 25.63323629 150.11399109 22.21118164 150.11352539 C20.6737027 150.1189183 20.6737027 150.1189183 19.10516357 150.12442017 C18.17823196 150.1230455 17.25130035 150.12167084 16.29627991 150.12025452 C15.48602387 150.12117631 14.67576784 150.1220981 13.8409586 150.12304783 C12 150 12 150 11 149 C10.85884839 146.32941149 10.95752893 143.67567762 11 141 C10.28972656 140.93941406 9.57945313 140.87882813 8.84765625 140.81640625 C7.92855469 140.73261719 7.00945312 140.64882812 6.0625 140.5625 C4.68771484 140.44068359 4.68771484 140.44068359 3.28515625 140.31640625 C1 140 1 140 0 139 C-0.09639184 137.20305962 -0.12187425 135.40229107 -0.12025452 133.60276794 C-0.12162918 132.43182587 -0.12300385 131.26088379 -0.12442017 130.05445862 C-0.12082489 128.75830124 -0.11722961 127.46214386 -0.11352539 126.12670898 C-0.11324352 124.75712079 -0.11340125 123.38753244 -0.1139679 122.01794434 C-0.11425588 118.28877052 -0.10835909 114.55962859 -0.10139394 110.83046222 C-0.09516047 106.93735587 -0.09455661 103.04424887 -0.09336853 99.15113831 C-0.09025519 91.77401854 -0.08204178 84.39691351 -0.07201904 77.01980025 C-0.06085797 68.62332457 -0.05534747 60.22684821 -0.05032361 51.83036697 C-0.03985916 34.55356944 -0.02225968 17.27678628 0 0 Z M15 14 C15 57.56 15 101.12 15 146 C48.66 146 82.32 146 117 146 C117 134.45 117 122.9 117 111 C110.83871444 110.50119916 110.83871444 110.50119916 104.67431641 110.04394531 C103.90780762 109.97272461 103.14129883 109.90150391 102.3515625 109.828125 C101.56604004 109.7652832 100.78051758 109.70244141 99.97119141 109.63769531 C99.32069824 109.42725586 98.67020508 109.21681641 98 109 C97.34 107.68 96.68 106.36 96 105 C71.25 104.67 46.5 104.34 21 104 C21 103.34 21 102.68 21 102 C43.11 101.67 65.22 101.34 88 101 C87.1733292 97.05621488 87.1733292 97.05621488 85.4375 93.9375 C83.30652031 89.05922787 83.60914808 84.22119166 84 79 C84.05800781 78.21109375 84.11601562 77.4221875 84.17578125 76.609375 C85.16473466 69.79393704 88.89150051 65.43022813 94 61 C101.49673017 55.63607041 107.37887058 55.74008688 117 55 C117 41.47 117 27.94 117 14 C83.34 14 49.68 14 15 14 Z " fill="#E3EBF4" transform="translate(83,53)"/>
<path d="M0 0 C5.61 0 11.22 0 17 0 C17.556875 2.165625 18.11375 4.33125 18.6875 6.5625 C20.13674586 12.0939821 21.7772687 17.52638518 23.625 22.9375 C25.32938468 27.93003606 26.84479339 32.85407966 28 38 C29.485 37.505 29.485 37.505 31 37 C31.10441406 35.74574219 31.20882812 34.49148437 31.31640625 33.19921875 C31.9438073 27.565841 33.39275701 22.25429246 34.9375 16.8125 C35.20240234 15.85408203 35.46730469 14.89566406 35.74023438 13.90820312 C37.04669828 9.21725207 38.45817938 4.62546186 40 0 C45.61 0 51.22 0 57 0 C57 35.31 57 70.62 57 107 C51.39 107 45.78 107 40 107 C40 89.84 40 72.68 40 55 C39.34 55 38.68 55 38 55 C36.68 60.61 35.36 66.22 34 72 C30.37 72 26.74 72 23 72 C20.525 63.585 20.525 63.585 18 55 C17.97494385 56.53970459 17.9498877 58.07940918 17.92407227 59.66577148 C17.83019851 65.35547824 17.72992966 71.04505715 17.62768555 76.73461914 C17.58426057 79.20138569 17.54259128 81.66818378 17.50268555 84.13500977 C17.44516555 87.67213466 17.38141925 91.20909966 17.31640625 94.74609375 C17.29133751 96.41169594 17.29133751 96.41169594 17.26576233 98.11094666 C17.24581711 99.13192947 17.22587189 100.15291229 17.20532227 101.20483398 C17.18977798 102.10862289 17.1742337 103.0124118 17.15821838 103.94358826 C17 106 17 106 16 107 C10.72 107 5.44 107 0 107 C0 71.69 0 36.38 0 0 Z " fill="#28B4FE" transform="translate(484,78)"/>
<path d="M0 0 C5.21440513 -0.07412765 10.42850393 -0.12859104 15.64331055 -0.16479492 C17.41745343 -0.17988641 19.19155898 -0.20036191 20.96557617 -0.22631836 C23.51490487 -0.26268641 26.06374059 -0.27972238 28.61328125 -0.29296875 C29.40712723 -0.30845261 30.20097321 -0.32393646 31.01887512 -0.33988953 C36.45247224 -0.34155211 36.45247224 -0.34155211 38.99990845 1.24755859 C40.24231433 3.4246028 40.38037738 4.82692739 40.38818359 7.33203125 C40.39764008 8.20303467 40.40709656 9.07403809 40.4168396 9.97143555 C40.41076691 10.90898682 40.40469421 11.84653809 40.3984375 12.8125 C40.40130768 13.77776611 40.40417786 14.74303223 40.40713501 15.73754883 C40.40917661 17.77848904 40.40364007 19.81944877 40.39111328 21.86035156 C40.3750612 24.9880744 40.39095895 28.11450496 40.41015625 31.2421875 C40.40817384 33.22396119 40.4043302 35.20573408 40.3984375 37.1875 C40.40754654 38.5938269 40.40754654 38.5938269 40.4168396 40.02856445 C40.40738312 40.89956787 40.39792664 41.77057129 40.38818359 42.66796875 C40.38579681 43.43391357 40.38341003 44.1998584 40.38095093 44.98901367 C39.89950264 47.5305114 39.02947599 48.44151349 37 50 C36.34 50 35.68 50 35 50 C35.8149292 50.58031982 36.6298584 51.16063965 37.46948242 51.75854492 C40.89182177 55.21227426 40.56817026 58.84388697 40.56648254 63.4947052 C40.54067612 64.6063353 40.51486969 65.71796539 40.48828125 66.86328125 C40.48120651 68.01040085 40.47413177 69.15752045 40.46684265 70.33940125 C40.43888813 73.99776838 40.37614286 77.65459663 40.3125 81.3125 C40.28741872 83.79489975 40.26460526 86.27732352 40.24414062 88.75976562 C40.18905716 94.84043532 40.10277287 100.91995689 40 107 C34.72 107 29.44 107 24 107 C23.67 91.82 23.34 76.64 23 61 C21.35 60.67 19.7 60.34 18 60 C18.00222061 60.57407089 18.00444122 61.14814178 18.00672913 61.73960876 C18.02878257 67.6925291 18.04390684 73.6454379 18.05493164 79.59838867 C18.05997317 81.82267732 18.06680623 84.04696263 18.07543945 86.27124023 C18.08751298 89.46078309 18.09322996 92.65028229 18.09765625 95.83984375 C18.10281754 96.84087631 18.10797882 97.84190887 18.11329651 98.87327576 C18.11340981 100.25459435 18.11340981 100.25459435 18.11352539 101.66381836 C18.115746 102.47878281 18.11796661 103.29374725 18.12025452 104.13340759 C18 106 18 106 17 107 C14.3226862 107.09981214 11.67695825 107.13879875 9 107.125 C7.87464844 107.13080078 7.87464844 107.13080078 6.7265625 107.13671875 C1.12661053 107.12661053 1.12661053 107.12661053 0 106 C-0.0953919 104.62123975 -0.12188622 103.23763084 -0.12025452 101.85557556 C-0.12162918 100.96230057 -0.12300385 100.06902557 -0.12442017 99.14868164 C-0.12082489 98.16109863 -0.11722961 97.17351562 -0.11352539 96.15600586 C-0.11367142 95.12198135 -0.11381744 94.08795685 -0.1139679 93.02259827 C-0.11326827 89.58665914 -0.10547358 86.15077347 -0.09765625 82.71484375 C-0.09579225 80.33972707 -0.09436826 77.96461 -0.09336853 75.5894928 C-0.08954197 69.32423856 -0.0797105 63.05900733 -0.06866455 56.79376221 C-0.0584534 50.4061311 -0.05387155 44.01849629 -0.04882812 37.63085938 C-0.03808836 25.08722974 -0.02120127 12.54361609 0 0 Z " fill="#29B4FD" transform="translate(307,78)"/>
<path d="M0 0 C33.99 0 67.98 0 103 0 C103 14.52 103 29.04 103 44 C102.34 44 101.68 44 101 44 C101 44.99 101 45.98 101 47 C102.051875 47.2475 103.10375 47.495 104.1875 47.75 C110.46943497 49.57011798 114.14360122 53.96525715 118 59 C119.21347754 62.64043263 119.2224972 66.02055186 119.25 69.8125 C119.270625 70.51181641 119.29125 71.21113281 119.3125 71.93164062 C119.3592991 78.18516976 117.7236157 82.04959276 113.625 86.6875 C111.1906904 88.83201084 108.84420236 90.45600443 106 92 C106.99 93.485 106.99 93.485 108 95 C108.66 95 109.32 95 110 95 C110.33 95.66 110.66 96.32 111 97 C111.99 96.67 112.98 96.34 114 96 C115.5 97.375 115.5 97.375 117 99 C117 99.66 117 100.32 117 101 C118.485 101.495 118.485 101.495 120 102 C121.38671875 104.65234375 121.38671875 104.65234375 122.6875 107.9375 C123.12449219 109.01902344 123.56148438 110.10054688 124.01171875 111.21484375 C125 114 125 114 125 116 C126.485 116.495 126.485 116.495 128 117 C128.87890625 118.92578125 128.87890625 118.92578125 129.5625 121.3125 C130.26022879 123.6973922 130.91383942 125.83585466 132.0703125 128.0390625 C133.68863117 131.45249096 133.2972442 134.25472313 133 138 C131.18836733 140.67431489 130.12238923 140.95920359 127 142 C125.0625 142.16796875 125.0625 142.16796875 123 142.1875 C122.319375 142.20167969 121.63875 142.21585938 120.9375 142.23046875 C119 142 119 142 116 140 C115.0246298 137.55433882 114.19624594 135.19830282 113.4375 132.6875 C112.0931921 128.39653576 110.74214457 124.15063938 109 120 C108.34 120 107.68 120 107 120 C107 125.61 107 131.22 107 137 C106.34 136.67 105.68 136.34 105 136 C105 130.39 105 124.78 105 119 C101.43317757 122.56682243 103.35938784 128.9685703 103 134 C69.01 134 35.02 134 0 134 C0 133.67 0 133.34 0 133 C33.66 133 67.32 133 102 133 C102 121.45 102 109.9 102 98 C98.37 98 94.74 98 91 98 C86.4375 97.1875 86.4375 97.1875 83 96 C82.34 95.01 81.68 94.02 81 93 C78.54901516 92.68350439 76.34403095 92.56254947 73.88818359 92.56762695 C72.79046883 92.55233948 72.79046883 92.55233948 71.670578 92.53674316 C69.24645448 92.50649654 66.8227253 92.49732979 64.3984375 92.48828125 C62.71976394 92.47144314 61.04110306 92.45329409 59.36245728 92.43388367 C54.94018515 92.38628293 50.51796438 92.35653898 46.09552002 92.33044434 C41.58441009 92.30068941 37.07347739 92.25414181 32.5625 92.20898438 C23.70842584 92.12283681 14.85431531 92.05554269 6 92 C6 90.68 6 89.36 6 88 C28.11 88 50.22 88 73 88 C71.35 84.37 69.7 80.74 68 77 C67.68924109 73.00452825 67.59441824 69.88779084 68 66 C68.04898438 65.22785156 68.09796875 64.45570313 68.1484375 63.66015625 C69.09413564 56.38850431 73.65340872 51.70696839 79 47 C86.66762664 41.33814324 91.90646938 42 102 42 C102 28.47 102 14.94 102 1 C68.34 1 34.68 1 0 1 C0 0.67 0 0.34 0 0 Z " fill="#CDE4F2" transform="translate(98,66)"/>
<path d="M0 0 C0.66 0.66 1.32 1.32 2 2 C3.051875 2.4125 4.10375 2.825 5.1875 3.25 C9.40513854 4.99187588 13.00573526 7.54052463 16 11 C16.6953125 13.19140625 16.6953125 13.19140625 17 15 C17.66 15 18.32 15 19 15 C22.1957069 23.5884623 22.35087091 33.5093107 18.96875 42.07421875 C15.89910789 48.1763702 11.0941346 52.14840494 5 55 C2.59816788 55.61631919 0.48994741 55.84437829 -2 56 C-2 56.66 -2 57.32 -2 58 C-3.7290774 58.02725341 -5.45828176 58.04650987 -7.1875 58.0625 C-8.15042969 58.07410156 -9.11335938 58.08570313 -10.10546875 58.09765625 C-12.85576513 58.00486622 -15.32479591 57.62111685 -18 57 C-18 56.34 -18 55.68 -18 55 C-19.2375 54.7215625 -19.2375 54.7215625 -20.5 54.4375 C-26.12841339 52.12583022 -30.34778237 48.89368842 -33.3984375 43.55078125 C-36.73349439 35.44966788 -37.57503815 26.2156483 -35 17.75 C-31.58717311 10.24178085 -25.40971875 4.18702174 -17.93359375 0.8046875 C-12.11226356 -0.7921088 -5.96649952 -0.70852182 0 0 Z " fill="#276BB2" transform="translate(137,73)"/>
<path d="M0 0 C1.24007813 -0.00257812 2.48015625 -0.00515625 3.7578125 -0.0078125 C5.05460937 -0.00007813 6.35140625 0.00765625 7.6875 0.015625 C9.63269531 0.00402344 9.63269531 0.00402344 11.6171875 -0.0078125 C12.85726563 -0.00523438 14.09734375 -0.00265625 15.375 0 C16.51324219 0.00225586 17.65148437 0.00451172 18.82421875 0.00683594 C21.6875 0.265625 21.6875 0.265625 24.6875 2.265625 C24.99178811 4.9967543 25.10755639 7.49736359 25.0859375 10.23046875 C25.08880768 11.01958145 25.09167786 11.80869415 25.09463501 12.62171936 C25.096678 14.29200965 25.09113169 15.96232373 25.07861328 17.63256836 C25.0625833 20.18983549 25.07844202 22.74551706 25.09765625 25.30273438 C25.09567344 26.92448266 25.09182898 28.54622996 25.0859375 30.16796875 C25.09504654 31.31651588 25.09504654 31.31651588 25.1043396 32.48826599 C25.0350087 37.72348746 25.0350087 37.72348746 23.41333008 40.25341797 C21.32521015 41.47810961 20.08850576 41.61301611 17.67578125 41.55859375 C16.91845703 41.54892578 16.16113281 41.53925781 15.38085938 41.52929688 C14.59517578 41.50416016 13.80949219 41.47902344 13 41.453125 C11.80407227 41.43282227 11.80407227 41.43282227 10.58398438 41.41210938 C8.61820033 41.37679589 6.65276418 41.32298947 4.6875 41.265625 C4.6875 45.885625 4.6875 50.505625 4.6875 55.265625 C6.72744141 55.24822266 6.72744141 55.24822266 8.80859375 55.23046875 C10.5807278 55.22109238 12.35286333 55.21199202 14.125 55.203125 C15.02283203 55.19474609 15.92066406 55.18636719 16.84570312 55.17773438 C17.69970703 55.17451172 18.55371094 55.17128906 19.43359375 55.16796875 C20.22435303 55.16273193 21.0151123 55.15749512 21.82983398 55.15209961 C23.6875 55.265625 23.6875 55.265625 24.6875 56.265625 C24.76008946 58.45201953 24.77123783 60.64062889 24.75 62.828125 C24.74097656 64.02566406 24.73195313 65.22320312 24.72265625 66.45703125 C24.71105469 67.38386719 24.69945312 68.31070313 24.6875 69.265625 C20.1668661 69.33969017 15.646584 69.39418545 11.12548828 69.43041992 C9.58701426 69.44552211 8.04858339 69.46600546 6.51025391 69.49194336 C4.30099859 69.52826574 2.09231152 69.54533619 -0.1171875 69.55859375 C-1.15164505 69.58181953 -1.15164505 69.58181953 -2.20700073 69.60551453 C-4.14794922 69.60620117 -4.14794922 69.60620117 -7.3125 69.265625 C-9.66424917 65.73800124 -9.57003379 64.26034927 -9.5871582 60.08178711 C-9.59669022 58.80714096 -9.60622223 57.53249481 -9.61604309 56.21922302 C-9.61578172 54.82713799 -9.61484493 53.43505293 -9.61328125 52.04296875 C-9.61716767 50.61715062 -9.62150223 49.19133365 -9.62626648 47.76551819 C-9.63372641 44.77878055 -9.63343843 41.79216114 -9.62817383 38.80541992 C-9.62236946 34.97280702 -9.63933403 31.14067585 -9.6625185 27.30814266 C-9.67722677 24.36480366 -9.67813173 21.42158159 -9.67500877 18.47821236 C-9.67552313 17.06477463 -9.68078226 15.65133056 -9.69082069 14.23792839 C-9.70311454 12.26534567 -9.69447781 10.29266572 -9.68481445 8.32006836 C-9.68544388 7.19660507 -9.6860733 6.07314178 -9.6867218 4.91563416 C-9.56322861 4.04113113 -9.43973541 3.16662811 -9.3125 2.265625 C-5.76378499 -0.10018501 -4.20658047 0.00833694 0 0 Z " fill="#28B4FE" transform="translate(367.3125,115.734375)"/>
<path d="M0 0 C1.93456055 -0.00580078 1.93456055 -0.00580078 3.90820312 -0.01171875 C4.57875732 -0.00543457 5.24931152 0.00084961 5.94018555 0.00732422 C7.99269852 0.02341089 10.0432506 0.00745616 12.09570312 -0.01171875 C13.38412109 -0.00785156 14.67253906 -0.00398438 16 0 C17.7780603 0.00507568 17.7780603 0.00507568 19.59204102 0.01025391 C20.52975342 0.13835449 21.46746582 0.26645508 22.43359375 0.3984375 C24.63551599 3.70132086 24.67319343 4.67306477 24.62890625 8.50390625 C24.62246094 9.48681641 24.61601562 10.46972656 24.609375 11.48242188 C24.59261719 12.50658203 24.57585937 13.53074219 24.55859375 14.5859375 C24.54957031 15.62169922 24.54054688 16.65746094 24.53125 17.72460938 C24.50767358 20.28265056 24.47180251 22.84057303 24.43359375 25.3984375 C19.81359375 25.3984375 15.19359375 25.3984375 10.43359375 25.3984375 C10.10359375 22.4284375 9.77359375 19.4584375 9.43359375 16.3984375 C6.95859375 15.9034375 6.95859375 15.9034375 4.43359375 15.3984375 C5.71924133 19.86540689 7.40175744 23.12143126 10.18359375 26.8359375 C10.89515625 27.78855469 11.60671875 28.74117187 12.33984375 29.72265625 C14.46547712 32.43918397 16.6575483 35.04996532 19.01171875 37.5703125 C24.19775471 44.23807301 25.00587122 48.82401266 24.74609375 57.1484375 C24.7315918 58.56576172 24.7315918 58.56576172 24.71679688 60.01171875 C24.60434099 66.88619577 24.60434099 66.88619577 23.43359375 70.3984375 C19.05537466 70.4725094 14.67748593 70.52700125 10.29882812 70.56323242 C8.80885466 70.5783335 7.31892574 70.59881608 5.82910156 70.62475586 C3.68934145 70.66108334 1.55016809 70.67814971 -0.58984375 70.69140625 C-2.522229 70.71497192 -2.522229 70.71497192 -4.49365234 70.73901367 C-5.50766113 70.62662354 -6.52166992 70.5142334 -7.56640625 70.3984375 C-9.76832849 67.09555414 -9.80600593 66.12381023 -9.76171875 62.29296875 C-9.75527344 61.31005859 -9.74882812 60.32714844 -9.7421875 59.31445312 C-9.72542969 58.29029297 -9.70867187 57.26613281 -9.69140625 56.2109375 C-9.68238281 55.17517578 -9.67335938 54.13941406 -9.6640625 53.07226562 C-9.64048485 50.51409065 -9.60757655 47.95638002 -9.56640625 45.3984375 C-7.42063988 45.37157812 -5.2747798 45.35210662 -3.12890625 45.3359375 C-1.93394531 45.32433594 -0.73898437 45.31273437 0.4921875 45.30078125 C3.43359375 45.3984375 3.43359375 45.3984375 4.43359375 46.3984375 C4.50564886 48.08452716 4.51745443 49.77344409 4.49609375 51.4609375 C4.48707031 52.38003906 4.47804688 53.29914063 4.46875 54.24609375 C4.45714844 54.95636719 4.44554687 55.66664063 4.43359375 56.3984375 C6.90859375 55.9034375 6.90859375 55.9034375 9.43359375 55.3984375 C9.93557147 51.42495117 9.56476559 49.14705031 7.203125 45.99609375 C6.2320232 44.80566828 5.24578483 43.62745764 4.24609375 42.4609375 C3.27189391 41.28643488 2.29923261 40.11065438 1.328125 38.93359375 C0.84553223 38.35625488 0.36293945 37.77891602 -0.13427734 37.18408203 C-1.59101296 35.36775671 -2.91962806 33.49768446 -4.2421875 31.58203125 C-6.37411802 28.27750558 -6.37411802 28.27750558 -9.56640625 26.3984375 C-9.95458984 24.10766602 -9.95458984 24.10766602 -9.96484375 21.27734375 C-9.96871094 20.25962891 -9.97257812 19.24191406 -9.9765625 18.19335938 C-9.96496094 17.12666016 -9.95335937 16.05996094 -9.94140625 14.9609375 C-9.95300781 13.89810547 -9.96460938 12.83527344 -9.9765625 11.74023438 C-9.97269531 10.72123047 -9.96882813 9.70222656 -9.96484375 8.65234375 C-9.96145996 7.71720947 -9.95807617 6.7820752 -9.95458984 5.81860352 C-9.56640625 3.3984375 -9.56640625 3.3984375 -8.4519043 1.5949707 C-5.63923137 -0.18994578 -3.30821811 0.00943472 0 0 Z " fill="#29B4FD" transform="translate(407.56640625,114.6015625)"/>
<path d="M0 0 C10.23 0 20.46 0 31 0 C33 2 33 2 33.24050903 4.78408813 C33.2338472 6.562798 33.2338472 6.562798 33.22705078 8.37744141 C33.22734283 9.03122269 33.22763489 9.68500397 33.22793579 10.3585968 C33.22654065 12.52305296 33.2109712 14.68716636 33.1953125 16.8515625 C33.19158302 18.35085868 33.18873574 19.8501573 33.18673706 21.34945679 C33.17909548 25.29836743 33.1594426 29.24713129 33.1373291 33.19598389 C33.1168819 37.22438572 33.10773776 41.25281124 33.09765625 45.28125 C33.07619709 53.18757492 33.04101078 61.0937523 33 69 C28.71 69 24.42 69 20 69 C19.67 50.85 19.34 32.7 19 14 C16.03 13.505 16.03 13.505 13 13 C13 31.48 13 49.96 13 69 C8.71 69 4.42 69 0 69 C0 46.23 0 23.46 0 0 Z " fill="#24B3FE" transform="translate(575,116)"/>
<path d="M0 0 C4.29 0 8.58 0 13 0 C13 18.15 13 36.3 13 55 C15.31 55 17.62 55 20 55 C20 36.85 20 18.7 20 0 C24.29 0 28.58 0 33 0 C33 22.77 33 45.54 33 69 C27.33333333 69 21.66666667 69 16 69 C14.88367188 69.03480469 13.76734375 69.06960937 12.6171875 69.10546875 C11.38226563 69.13253906 10.14734375 69.15960938 8.875 69.1875 C7.01488281 69.23970703 7.01488281 69.23970703 5.1171875 69.29296875 C3.57417969 69.14794922 3.57417969 69.14794922 2 69 C-0.39010685 65.41483972 -0.24326602 63.85733033 -0.22705078 59.60083008 C-0.22734283 58.95665634 -0.22763489 58.3124826 -0.22793579 57.64878845 C-0.22654384 55.52223177 -0.21098938 53.39602663 -0.1953125 51.26953125 C-0.19158188 49.79408459 -0.18873514 48.31863545 -0.18673706 46.84318542 C-0.17910442 42.96169178 -0.15945917 39.08034804 -0.1373291 35.19891357 C-0.11686269 31.23744739 -0.10773365 27.27595695 -0.09765625 23.31445312 C-0.07621284 15.54289253 -0.0410338 7.77148637 0 0 Z " fill="#25B3FD" transform="translate(440,116)"/>
<path d="M0 0 C4.95 0 9.9 0 15 0 C15 12.21 15 24.42 15 37 C17.97 37 20.94 37 24 37 C25 38 25 38 25.1328125 40.90625 C25.13023437 42.0921875 25.12765625 43.278125 25.125 44.5 C25.12886719 46.27890625 25.12886719 46.27890625 25.1328125 48.09375 C25 51 25 51 24 52 C20.7 52 17.4 52 14 52 C14 69.82 14 87.64 14 106 C9.71 106 5.42 106 1 106 C1 88.18 1 70.36 1 52 C-2.63 52 -6.26 52 -10 52 C-11 51 -11 51 -11.09765625 48.05859375 C-11.08605469 46.86363281 -11.07445312 45.66867188 -11.0625 44.4375 C-11.05347656 43.23996094 -11.04445313 42.04242188 -11.03515625 40.80859375 C-11.02355469 39.88175781 -11.01195312 38.95492187 -11 38 C-7.37 38 -3.74 38 0 38 C0 25.46 0 12.92 0 0 Z " fill="#2BB5FE" transform="translate(625,78)"/>
<path d="M0 0 C33.66 0 67.32 0 102 0 C102 1.65 102 3.3 102 5 C54.975 5.495 54.975 5.495 7 6 C7 47.91 7 89.82 7 133 C4.69 133 2.38 133 0 133 C0 89.11 0 45.22 0 0 Z " fill="#3169AF" transform="translate(87,57)"/>
<path d="M0 0 C4.29 0 8.58 0 13 0 C13.33 0.66 13.66 1.32 14 2 C15.2375 2.7115625 15.2375 2.7115625 16.5 3.4375 C19 5 19 5 20 8 C20.66 8 21.32 8 22 8 C24.43204243 13.43633013 24.1704948 18.27967864 23 24 C20.89401746 29.15213586 17.02245446 32.09635013 12.0625 34.3125 C5.91790297 35.69189933 1.3369994 35.39076814 -4.1328125 32.3046875 C-7.44758096 29.98851037 -9.56316402 27.82714838 -11 24 C-11.78564742 18.42398908 -12.36940085 12.29584667 -9.1875 7.375 C-8.465625 6.59125 -7.74375 5.8075 -7 5 C-6.505 4.38125 -6.01 3.7625 -5.5 3.125 C-4 2 -4 2 0 2 C0 1.34 0 0.68 0 0 Z " fill="#1B81C7" transform="translate(188,119)"/>
<path d="M0 0 C26.915625 -0.061875 26.915625 -0.061875 54.375 -0.125 C60.0473584 -0.14320801 65.7197168 -0.16141602 71.56396484 -0.18017578 C78.47387695 -0.18920898 78.47387695 -0.18920898 81.70547485 -0.19088745 C83.96956161 -0.19396495 86.23364503 -0.20101203 88.49771118 -0.21115112 C91.92089562 -0.22571886 95.34387921 -0.22781441 98.76708984 -0.22705078 C100.28802278 -0.23784511 100.28802278 -0.23784511 101.83968163 -0.2488575 C103.2166468 -0.24472501 103.2166468 -0.24472501 104.62142944 -0.24050903 C105.42338934 -0.24235262 106.22534924 -0.24419621 107.05161095 -0.24609566 C109 0 109 0 111 2 C111.125 5.625 111.125 5.625 111 9 C111.62648438 8.98839844 112.25296875 8.97679687 112.8984375 8.96484375 C113.71570313 8.95582031 114.53296875 8.94679688 115.375 8.9375 C116.18710938 8.92589844 116.99921875 8.91429687 117.8359375 8.90234375 C120 9 120 9 122 10 C122 25.51 122 41.02 122 57 C123.485 57.495 123.485 57.495 125 58 C124.01 58.495 124.01 58.495 123 59 C122.34 58.67 121.68 58.34 121 58 C120.67 42.82 120.34 27.64 120 12 C115.38 12 110.76 12 106 12 C103.42327594 11.87322653 100.847462 11.71984355 98.27539062 11.51977539 C89.38416239 10.89198495 80.50408522 10.77609296 71.59375 10.68359375 C69.89025451 10.66295289 68.18676331 10.64195498 66.48327637 10.62062073 C62.05791767 10.56613451 57.63251862 10.51641002 53.20709229 10.46777344 C48.66797408 10.41701244 44.12891253 10.36161513 39.58984375 10.30664062 C30.72661077 10.19996137 21.86332956 10.09832666 13 10 C13 9.67 13 9.34 13 9 C43.69 9 74.38 9 106 9 C106 7.35 106 5.7 106 4 C72.34 4 38.68 4 4 4 C4 47.89 4 91.78 4 137 C3.67 137 3.34 137 3 137 C2.67 105.98 2.34 74.96 2 43 C1.67 74.68 1.34 106.36 1 139 C0.67 139 0.34 139 0 139 C0 93.13 0 47.26 0 0 Z " fill="#E3EAF3" transform="translate(83,53)"/>
<path d="M0 0 C4.62 0 9.24 0 14 0 C14.02255318 8.84882724 14.04091634 17.69763552 14.05181217 26.54648495 C14.05704046 30.65494285 14.06413713 34.76338014 14.07543945 38.87182617 C14.08627025 42.83346828 14.09227724 46.79509052 14.09487724 50.75674629 C14.09673114 52.27148311 14.1003511 53.78621879 14.10573006 55.30094719 C14.11294307 57.41541813 14.11399083 59.52980594 14.11352539 61.64428711 C14.115746 62.85007919 14.11796661 64.05587128 14.12025452 65.29820251 C14 68 14 68 13 69 C8.71 69 4.42 69 0 69 C0 46.23 0 23.46 0 0 Z " fill="#2EB6FD" transform="translate(552,116)"/>
<path d="M0 0 C0.33 0 0.66 0 1 0 C1 43.23 1 86.46 1 131 C3.97 131 6.94 131 10 131 C10 103.61 10 76.22 10 48 C10.66 48 11.32 48 12 48 C12.33 78.36 12.66 108.72 13 140 C46.99 140.33 80.98 140.66 116 141 C116 136.38 116 131.76 116 127 C116.99 126.34 117.98 125.68 119 125 C119.02683987 127.97922593 119.04676037 130.95821295 119.0625 133.9375 C119.07506836 135.21270508 119.07506836 135.21270508 119.08789062 136.51367188 C119.09111328 137.32255859 119.09433594 138.13144531 119.09765625 138.96484375 C119.10289307 139.7137085 119.10812988 140.46257324 119.11352539 141.23413086 C119 143 119 143 118 144 C116.5982167 144.09762523 115.19155547 144.12631658 113.78637695 144.12698364 C112.42338974 144.13121338 112.42338974 144.13121338 111.03286743 144.13552856 C109.52579727 144.13249222 109.52579727 144.13249222 107.98828125 144.12939453 C106.9363559 144.13114685 105.88443054 144.13289917 104.80062866 144.13470459 C101.30456926 144.13912543 97.80855997 144.13618429 94.3125 144.1328125 C91.89493805 144.13348547 89.47737617 144.13445544 87.05981445 144.13571167 C81.98550779 144.13718896 76.91121869 144.13503309 71.83691406 144.13037109 C65.31615297 144.1246738 58.79543304 144.12795263 52.27467346 144.13394356 C47.28031094 144.13754833 42.28595826 144.13641097 37.29159546 144.13381577 C34.88650508 144.13314626 32.48141382 144.13397572 30.07632446 144.13629532 C26.72143165 144.13882048 23.3666065 144.13498317 20.01171875 144.12939453 C19.00700531 144.13141876 18.00229187 144.13344299 16.96713257 144.13552856 C15.60414536 144.13129883 15.60414536 144.13129883 14.21362305 144.12698364 C13.41941452 144.12660662 12.62520599 144.12622959 11.80693054 144.12584114 C10 144 10 144 9 143 C8.85884839 140.32941149 8.95752893 137.67567762 9 135 C5.7 134.67 2.4 134.34 -1 134 C-1.0235341 121.99179157 -1.04111831 109.98358892 -1.05181217 97.97536182 C-1.05695369 92.39494301 -1.06388473 86.81454037 -1.07543945 81.23413086 C-1.13009957 54.13770791 -0.94942267 27.08144006 0 0 Z " fill="#FAFBFC" transform="translate(85,59)"/>
<path d="M0 0 C11.81521135 -0.68826474 11.81521135 -0.68826474 15.625 1.75 C17.78815745 3.79930706 19.00609853 5.21707588 20 8 C20.66 8 21.32 8 22 8 C23.77300051 11.54600103 23.63974781 15.13759731 23 19 C20.72075676 23.79606233 18.16346924 28.13357167 13 30 C7.90794823 30.67062244 2.72950208 30.79120451 -1.9375 28.4375 C-6.61829452 24.71196967 -8.69327435 21.45380519 -9.4375 15.5 C-8.81807105 10.54456837 -7.64179149 6.54228897 -3.9375 3.0625 C-2 2 -2 2 0 2 C0 1.34 0 0.68 0 0 Z " fill="#3394D1" transform="translate(163,164)"/>
<path d="M0 0 C0.66 0.66 1.32 1.32 2 2 C3.051875 2.4125 4.10375 2.825 5.1875 3.25 C9.40513854 4.99187588 13.00573526 7.54052463 16 11 C16.6953125 13.19140625 16.6953125 13.19140625 17 15 C17.66 15 18.32 15 19 15 C22.1957069 23.5884623 22.35087091 33.5093107 18.96875 42.07421875 C15.89910789 48.1763702 11.0941346 52.14840494 5 55 C2.59816788 55.61631919 0.48994741 55.84437829 -2 56 C-2 56.66 -2 57.32 -2 58 C-3.7290774 58.02725341 -5.45828176 58.04650987 -7.1875 58.0625 C-8.15042969 58.07410156 -9.11335938 58.08570313 -10.10546875 58.09765625 C-12.85576513 58.00486622 -15.32479591 57.62111685 -18 57 C-18 56.34 -18 55.68 -18 55 C-19.2375 54.7215625 -19.2375 54.7215625 -20.5 54.4375 C-26.12841339 52.12583022 -30.34778237 48.89368842 -33.3984375 43.55078125 C-36.73349439 35.44966788 -37.57503815 26.2156483 -35 17.75 C-31.58717311 10.24178085 -25.40971875 4.18702174 -17.93359375 0.8046875 C-12.11226356 -0.7921088 -5.96649952 -0.70852182 0 0 Z M-20 6 C-20 6.66 -20 7.32 -20 8 C-20.59554687 8.26425781 -21.19109375 8.52851562 -21.8046875 8.80078125 C-26.49172497 11.36113802 -29.39097353 15.50511684 -31.375 20.375 C-33.03444777 29.99979707 -31.8373495 37.1677645 -26.25 45.25 C-22.64409524 49.81568538 -17.93281062 53.28087144 -12 54 C-4.60498534 54.50135693 1.9375064 53.57527871 7.75 48.6875 C8.4925 47.800625 9.235 46.91375 10 46 C10.886875 45.030625 11.77375 44.06125 12.6875 43.0625 C17.35298382 36.8838863 17.85798368 30.54397841 17 23 C15.26242439 17.18718261 12.43387533 11.0929612 7.109375 7.84765625 C-1.79038913 3.21648269 -10.49273207 2.6931242 -20 6 Z " fill="#DDE9F4" transform="translate(137,73)"/>
<path d="M0 0 C1.5631897 0.00785522 1.5631897 0.00785522 3.15795898 0.01586914 C4.28266602 0.0190918 5.40737305 0.02231445 6.56616211 0.02563477 C7.75016602 0.03401367 8.93416992 0.04239258 10.15405273 0.05102539 C11.34192383 0.05553711 12.52979492 0.06004883 13.75366211 0.06469727 C16.69967499 0.07652864 19.64558954 0.09301252 22.59155273 0.11352539 C22.62043788 3.25933962 22.63831196 6.40512008 22.65405273 9.55102539 C22.66243164 10.44885742 22.67081055 11.34668945 22.67944336 12.27172852 C22.68427734 13.55273438 22.68427734 13.55273438 22.68920898 14.85961914 C22.69706421 16.04575806 22.69706421 16.04575806 22.70507812 17.25585938 C22.59155273 19.11352539 22.59155273 19.11352539 21.59155273 20.11352539 C17.78567129 20.36561261 13.96729817 20.29874883 10.15405273 20.30102539 C8.54046875 20.31939453 8.54046875 20.31939453 6.89428711 20.33813477 C5.86754883 20.34006836 4.84081055 20.34200195 3.78295898 20.34399414 C2.36285522 20.35015747 2.36285522 20.35015747 0.9140625 20.35644531 C-1.40844727 20.11352539 -1.40844727 20.11352539 -3.40844727 18.11352539 C-3.58023778 15.22220362 -3.64074197 12.43910474 -3.59594727 9.55102539 C-3.59530273 8.75760742 -3.5946582 7.96418945 -3.59399414 7.14672852 C-3.54034884 0.16687909 -3.54034884 0.16687909 0 0 Z " fill="#DAE8F4" transform="translate(168.408447265625,85.886474609375)"/>
<path d="M0 0 C5.15025384 3.12939233 9.68768265 6.61187341 11.98828125 12.30859375 C13.31299519 19.53430614 13.64726398 26.58849605 9.67578125 33.05859375 C4.5466796 38.69838517 -0.29321296 41.99281974 -7.94921875 42.55859375 C-15.02286493 42.38941836 -21.14459754 39.28032914 -26.09375 34.265625 C-29.80886652 29.07302698 -30.45553372 23.33357322 -30.32421875 17.05859375 C-30.03318971 15.38402187 -29.7118486 13.71347501 -29.32421875 12.05859375 C-28.66421875 12.05859375 -28.00421875 12.05859375 -27.32421875 12.05859375 C-27.23140625 11.22328125 -27.23140625 11.22328125 -27.13671875 10.37109375 C-25.37916707 5.36883129 -20.85543357 2.44344366 -16.32421875 0.05859375 C-11.09783078 -1.68353557 -5.18047243 -2.098309 0 0 Z M-14.32421875 3.05859375 C-14.32421875 3.71859375 -14.32421875 4.37859375 -14.32421875 5.05859375 C-15.40703125 5.12046875 -15.40703125 5.12046875 -16.51171875 5.18359375 C-20.59274025 6.45324488 -21.80952901 8.6358216 -24.32421875 12.05859375 C-26.56609851 16.54235328 -25.91377971 22.20605357 -25.32421875 27.05859375 C-23.23576768 31.89186622 -20.39200844 34.43733429 -15.88671875 37.05859375 C-9.06754126 38.97274884 -3.53371939 38.30684093 2.67578125 35.05859375 C7.1277949 31.57440915 8.76295155 28.62685493 9.67578125 23.05859375 C9.54297675 16.86472347 9.54297675 16.86472347 7.67578125 11.05859375 C7.01578125 11.05859375 6.35578125 11.05859375 5.67578125 11.05859375 C5.42828125 10.43984375 5.18078125 9.82109375 4.92578125 9.18359375 C3.45332062 6.68041069 2.26549288 6.22814094 -0.32421875 5.05859375 C-0.65421875 4.39859375 -0.98421875 3.73859375 -1.32421875 3.05859375 C-5.61421875 3.05859375 -9.90421875 3.05859375 -14.32421875 3.05859375 Z " fill="#E3F0F8" transform="translate(202.32421875,115.94140625)"/>
<path d="M0 0 C0.84175781 -0.01933594 1.68351562 -0.03867188 2.55078125 -0.05859375 C6.88038794 -0.02450236 8.95979719 0.24149724 12.5703125 2.8046875 C14.76848033 6.01739433 15.07227938 7.53324362 14.875 11.375 C14.84148437 12.33921875 14.80796875 13.3034375 14.7734375 14.296875 C14.5 16.625 14.5 16.625 13.5 17.625 C11.51242972 17.72483058 9.5213248 17.75580753 7.53125 17.7578125 C6.32082031 17.75910156 5.11039063 17.76039062 3.86328125 17.76171875 C2.58839844 17.75785156 1.31351563 17.75398438 0 17.75 C-1.27488281 17.75386719 -2.54976562 17.75773437 -3.86328125 17.76171875 C-5.67892578 17.75978516 -5.67892578 17.75978516 -7.53125 17.7578125 C-8.65080078 17.75668457 -9.77035156 17.75555664 -10.92382812 17.75439453 C-13.5 17.625 -13.5 17.625 -14.5 16.625 C-14.7734375 14.296875 -14.7734375 14.296875 -14.875 11.375 C-14.92398438 10.42109375 -14.97296875 9.4671875 -15.0234375 8.484375 C-13.499517 0.15967496 -7.05365034 -0.16202872 0 0 Z " fill="#E2EBF5" transform="translate(129.5,101.375)"/>
<path d="M0 0 C1.47906892 -0.02689216 2.95827483 -0.04634621 4.4375 -0.0625 C5.26121094 -0.07410156 6.08492187 -0.08570313 6.93359375 -0.09765625 C9 0 9 0 10 1 C10.09295815 2.44289787 10.11746513 3.89029785 10.11352539 5.33618164 C10.11344986 6.2570607 10.11337433 7.17793976 10.11329651 8.12672424 C10.10813522 9.12775681 10.10297394 10.12878937 10.09765625 11.16015625 C10.0962413 12.17975937 10.09482635 13.19936249 10.09336853 14.24986267 C10.08775097 17.52077107 10.0751955 20.79161213 10.0625 24.0625 C10.05748726 26.27408756 10.05292396 28.48567618 10.04882812 30.69726562 C10.03777584 36.13153357 10.02102063 41.56576197 10 47 C11.11673096 47.29874023 12.23346191 47.59748047 13.3840332 47.90527344 C16.90490706 48.97121081 18.02972095 49.44045777 20.1875 52.25 C20.66960937 52.87003906 21.15171875 53.49007812 21.6484375 54.12890625 C22.09445313 54.74636719 22.54046875 55.36382812 23 56 C23.763125 57.051875 24.52625 58.10375 25.3125 59.1875 C29.21734539 65.69557565 28.60961438 73.40327518 27.375 80.6875 C25.83934098 84.38704219 23.810841 87.03120399 21.328125 90.140625 C19.72681811 92.38245464 19.24086264 94.27022341 19 97 C18.67 97.66 18.34 98.32 18 99 C17.34 98.67 16.68 98.34 16 98 C15.67 98.99 15.34 99.98 15 101 C14.67 99.68 14.34 98.36 14 97 C12.515 97.495 12.515 97.495 11 98 C11 97.01 11 96.02 11 95 C10.34 94.67 9.68 94.34 9 94 C9.53109375 93.70867187 10.0621875 93.41734375 10.609375 93.1171875 C16.36835599 89.77529707 19.83319546 86.50041362 22 80 C22.14821529 77.36062776 22.23097341 74.76493877 22.25 72.125 C22.270625 71.41730469 22.29125 70.70960938 22.3125 69.98046875 C22.3592203 63.70826797 20.66621473 60.7474935 16.4375 56.3125 C15.633125 55.549375 14.82875 54.78625 14 54 C13.34 53.34 12.68 52.68 12 52 C9.68351201 50.96157435 7.35096976 49.9578025 5 49 C5 48.01 5 47.02 5 46 C5.66 46 6.32 46 7 46 C6.67 31.48 6.34 16.96 6 2 C3.03 1.505 3.03 1.505 0 1 C0 0.67 0 0.34 0 0 Z " fill="#E2F0F8" transform="translate(194,64)"/>
<path d="M0 0 C0.04898438 0.74765625 0.09796875 1.4953125 0.1484375 2.265625 C0.26058594 3.74289063 0.26058594 3.74289063 0.375 5.25 C0.47941406 6.71179688 0.47941406 6.71179688 0.5859375 8.203125 C0.98883326 10.92457181 1.73760338 12.5983674 3 15 C3 15.99 3 16.98 3 18 C3.5775 18.2475 4.155 18.495 4.75 18.75 C7.3046733 20.16926295 8.94069854 21.94069854 11 24 C13.13309192 25.23512079 13.13309192 25.23512079 15 26 C15 26.99 15 27.98 15 29 C10.125 28.125 10.125 28.125 9 27 C6.65847159 26.87515846 4.34492415 26.81400709 2.00170898 26.79467773 C0.90421326 26.77982834 0.90421326 26.77982834 -0.2154541 26.76467896 C-2.64490472 26.73297617 -5.07437493 26.70827207 -7.50390625 26.68359375 C-9.18400087 26.66303178 -10.86409023 26.64203552 -12.54417419 26.62062073 C-16.97467803 26.56532174 -21.40522915 26.51594713 -25.83581543 26.46777344 C-30.35347725 26.4176154 -34.87107008 26.36189967 -39.38867188 26.30664062 C-48.2590557 26.1989634 -57.12949932 26.09753982 -66 26 C-66 24.68 -66 23.36 -66 22 C-43.89 22 -21.78 22 1 22 C-0.32 19.03 -1.64 16.06 -3 13 C-3.390625 9.49609375 -3.390625 9.49609375 -3.25 6.4375 C-3.21390625 5.40496094 -3.1778125 4.37242187 -3.140625 3.30859375 C-3.09421875 2.54675781 -3.0478125 1.78492188 -3 1 C-1 0 -1 0 0 0 Z " fill="#ECF3F9" transform="translate(170,132)"/>
<path d="M0 0 C0 26.07 0 52.14 0 79 C-1.65 79 -3.3 79 -5 79 C-5 53.26 -5 27.52 -5 1 C-1 0 -1 0 0 0 Z " fill="#1C67B1" transform="translate(93,110)"/>
<path d="M0 0 C33.99 0 67.98 0 103 0 C103 14.52 103 29.04 103 44 C102.34 44 101.68 44 101 44 C101 44.99 101 45.98 101 47 C100.14277344 47.02578125 99.28554687 47.0515625 98.40234375 47.078125 C88.9862978 47.52630575 88.9862978 47.52630575 81 52 C75.92192434 57.84152212 73.8722361 61.89952563 73.4375 69.625 C73.37272461 70.68460938 73.37272461 70.68460938 73.30664062 71.765625 C73.20055249 73.51018537 73.09977111 75.25506697 73 77 C72.67 77 72.34 77 72 77 C71.67 73.7 71.34 70.4 71 67 C70.34 67 69.68 67 69 67 C69 70.3 69 73.6 69 77 C68.67 77 68.34 77 68 77 C67.66849265 67.1468648 67.44844336 59.57258173 74 51.75 C78.70954995 46.93546008 82.6284486 44.27555407 89 42 C93.29 42 97.58 42 102 42 C102 28.47 102 14.94 102 1 C68.34 1 34.68 1 0 1 C0 0.67 0 0.34 0 0 Z " fill="#B5CFE6" transform="translate(98,66)"/>
<path d="M0 0 C11.81521135 -0.68826474 11.81521135 -0.68826474 15.625 1.75 C17.78815745 3.79930706 19.00609853 5.21707588 20 8 C20.66 8 21.32 8 22 8 C23.77300051 11.54600103 23.63974781 15.13759731 23 19 C20.72075676 23.79606233 18.16346924 28.13357167 13 30 C7.90794823 30.67062244 2.72950208 30.79120451 -1.9375 28.4375 C-6.61829452 24.71196967 -8.69327435 21.45380519 -9.4375 15.5 C-8.81807105 10.54456837 -7.64179149 6.54228897 -3.9375 3.0625 C-2 2 -2 2 0 2 C0 1.34 0 0.68 0 0 Z M2 4 C2 4.66 2 5.32 2 6 C0.02 6.99 0.02 6.99 -2 8 C-2 8.66 -2 9.32 -2 10 C-2.66 10 -3.32 10 -4 10 C-5.48731668 12.97463337 -5.4313052 14.67278843 -5 18 C-2.92926519 21.48520597 -0.68930436 25.15534782 3 27 C8.58159184 27.65665786 11.32623207 26.5794364 15.6171875 23.2890625 C17.51460553 21.52028298 17.96449429 20.33410294 18.23828125 17.7578125 C18.50443234 12.29594491 18.50443234 12.29594491 16.25 7.5 C15.5075 7.005 14.765 6.51 14 6 C13.4225 5.5875 12.845 5.175 12.25 4.75 C8.80572016 3.60190672 5.61906702 3.87936443 2 4 Z " fill="#E9F2F9" transform="translate(163,164)"/>
<path d="M0 0 C1.97909398 -0.02686553 3.95828971 -0.04633375 5.9375 -0.0625 C7.03964844 -0.07410156 8.14179688 -0.08570313 9.27734375 -0.09765625 C12 0 12 0 13 1 C13.04092937 3.33297433 13.04241723 5.66705225 13 8 C13.93972656 7.98259766 13.93972656 7.98259766 14.8984375 7.96484375 C15.71570313 7.95582031 16.53296875 7.94679688 17.375 7.9375 C18.18710938 7.92589844 18.99921875 7.91429687 19.8359375 7.90234375 C22 8 22 8 24 9 C24 24.51 24 40.02 24 56 C25.485 56.495 25.485 56.495 27 57 C26.01 57.495 26.01 57.495 25 58 C24.34 57.67 23.68 57.34 23 57 C22.67 41.82 22.34 26.64 22 11 C17.38 11 12.76 11 8 11 C5.42327594 10.87322653 2.847462 10.71984355 0.27539062 10.51977539 C-8.61583761 9.89198495 -17.49591478 9.77609296 -26.40625 9.68359375 C-28.10974549 9.66295289 -29.81323669 9.64195498 -31.51672363 9.62062073 C-35.94208233 9.56613451 -40.36748138 9.51641002 -44.79290771 9.46777344 C-49.33202592 9.41701244 -53.87108747 9.36161513 -58.41015625 9.30664062 C-67.27338923 9.19996137 -76.13667044 9.09832666 -85 9 C-85 8.67 -85 8.34 -85 8 C-54.31 8 -23.62 8 8 8 C8 6.35 8 4.7 8 3 C-25.66 3 -59.32 3 -94 3 C-94 2.67 -94 2.34 -94 2 C-62.98 1.67 -31.96 1.34 0 1 C0 0.67 0 0.34 0 0 Z " fill="#B9CFE6" transform="translate(181,54)"/>
<path d="M0 0 C0.33 0 0.66 0 1 0 C1 43.23 1 86.46 1 131 C21.79 130.67 42.58 130.34 64 130 C64.33 129.01 64.66 128.02 65 127 C63.515 126.505 63.515 126.505 62 126 C62.33 125.34 62.66 124.68 63 124 C63.81210938 124.47566406 63.81210938 124.47566406 64.640625 124.9609375 C67.4157149 126.18307974 69.73208098 126.40943436 72.75 126.625 C73.73484375 126.69976562 74.7196875 126.77453125 75.734375 126.8515625 C76.48203125 126.90054688 77.2296875 126.94953125 78 127 C78 127.66 78 128.32 78 129 C76.68 129 75.36 129 74 129 C74 129.66 74 130.32 74 131 C82.91 131 91.82 131 101 131 C101 120.11 101 109.22 101 98 C97.37 98 93.74 98 90 98 C89.67 97.34 89.34 96.68 89 96 C93.29 96.33 97.58 96.66 102 97 C102 108.55 102 120.1 102 132 C68.34 132 34.68 132 0 132 C0 88.44 0 44.88 0 0 Z " fill="#4895CD" transform="translate(98,67)"/>
<path d="M0 0 C1.29550781 -0.02578125 2.59101563 -0.0515625 3.92578125 -0.078125 C10.60047185 0.504091 14.24644399 3.4583343 18.6875 8.25 C19.43 8.95125 20.1725 9.6525 20.9375 10.375 C24.3589523 14.04084175 23.90319019 18.33203439 23.9375 23.0625 C23.958125 23.76181641 23.97875 24.46113281 24 25.18164062 C24.04594451 31.32097594 22.44542794 35.19071299 18.5 39.8125 C17.1078125 41.0190625 17.1078125 41.0190625 15.6875 42.25 C15.16800781 42.71921875 14.64851563 43.1884375 14.11328125 43.671875 C8.60526846 47.92535126 3.048661 47.97454337 -3.7421875 47.73828125 C-8.65681286 47.06614977 -11.66749876 45.53411003 -15.3125 42.25 C-16.26125 41.445625 -17.21 40.64125 -18.1875 39.8125 C-23.10168864 33.88656664 -22.96928573 26.5313428 -22.7578125 19.1796875 C-21.94911647 12.04329971 -18.33453696 7.88505168 -13.125 3.25 C-8.70445108 0.10649854 -5.32590106 0.06321544 0 0 Z M-16.3125 9.25 C-18.5898501 12.06509993 -18.5898501 12.06509993 -18.3125 15.25 C-18.9725 15.25 -19.6325 15.25 -20.3125 15.25 C-21.38244808 23.24569308 -21.36561387 28.87597479 -17.875 36.3125 C-13.58399741 41.23145419 -8.10651613 44.51459599 -1.65234375 45.765625 C4.19427859 46.0186473 8.95619859 44.71217549 13.6875 41.25 C19.09812568 36.28424799 21.67955617 31.33334356 22 23.9375 C21.81558484 18.17209983 21.08231728 12.62956367 16.84765625 8.421875 C14.84700081 6.88692148 12.86304028 5.52358884 10.6875 4.25 C10.05328125 3.87359375 9.4190625 3.4971875 8.765625 3.109375 C-0.19913235 -0.59785548 -9.58440086 3.09859507 -16.3125 9.25 Z " fill="#57A6D9" transform="translate(193.3125,112.75)"/>
<path d="M0 0 C1.1875 3.5625 1.1875 3.5625 2 7 C2.66 7 3.32 7 4 7 C4.99 10.96 5.98 14.92 7 19 C7.66 19 8.32 19 9 19 C10.60355101 22.50776784 11.22036864 25.14354879 11 29 C10.34 28.67 9.68 28.34 9 28 C9 27.34 9 26.68 9 26 C7.68 26 6.36 26 5 26 C5.33 27.98 5.66 29.96 6 32 C3.64621384 31.05065589 2.27590353 30.44105009 0.91015625 28.2578125 C0.63042969 27.55398437 0.35070312 26.85015625 0.0625 26.125 C-0.26363281 25.32964844 -0.58976563 24.53429687 -0.92578125 23.71484375 C-1.45751953 22.37099609 -1.45751953 22.37099609 -2 21 C-2.87217441 18.89466056 -3.74724123 16.79051733 -4.625 14.6875 C-5.02976563 13.70136719 -5.43453125 12.71523437 -5.8515625 11.69921875 C-6.9312293 9.05576933 -6.9312293 9.05576933 -8.1484375 6.83203125 C-9 5 -9 5 -9 2 C-8.34 2 -7.68 2 -7 2 C-7 1.34 -7 0.68 -7 0 C-3.98968256 -0.93423645 -3.13349732 -1.04449911 0 0 Z " fill="#239CDA" transform="translate(216,173)"/>
<path d="M0 0 C17.49 0 34.98 0 53 0 C53.495 1.485 53.495 1.485 54 3 C53.67 3.66 53.34 4.32 53 5 C35.18 5 17.36 5 -1 5 C-0.67 3.35 -0.34 1.7 0 0 Z " fill="#CADEEF" transform="translate(104,140)"/>
<path d="M0 0 C2.875 1.0625 2.875 1.0625 5 3 C6.125 6.3125 6.125 6.3125 6 10 C4 13.4375 4 13.4375 1 16 C-2.5 16.75 -2.5 16.75 -6 16 C-9 13.4375 -9 13.4375 -11 10 C-11 6.42896064 -10.66890244 4.15199865 -8.875 1.0625 C-5.84347716 -0.65536295 -3.41003805 -0.35276256 0 0 Z " fill="#DCE6F2" transform="translate(132,85)"/>
<path d="M0 0 C1.32 0.66 2.64 1.32 4 2 C4 2.66 4 3.32 4 4 C4.99 4.33 5.98 4.66 7 5 C7.87890625 6.92578125 7.87890625 6.92578125 8.5625 9.3125 C9.26022879 11.6973922 9.91383942 13.83585466 11.0703125 16.0390625 C12.68863117 19.45249096 12.2972442 22.25472313 12 26 C10.18836733 28.67431489 9.12238923 28.95920359 6 30 C4.0625 30.16796875 4.0625 30.16796875 2 30.1875 C1.319375 30.20167969 0.63875 30.21585938 -0.0625 30.23046875 C-2 30 -2 30 -5 28 C-5.98515378 25.37643538 -6.42238929 22.75475877 -7 20 C-6.01 20.33 -5.02 20.66 -4 21 C-3.67 19.68 -3.34 18.36 -3 17 C-2.73445312 17.63808594 -2.46890625 18.27617187 -2.1953125 18.93359375 C-1.84210938 19.75988281 -1.48890625 20.58617187 -1.125 21.4375 C-0.77695313 22.26121094 -0.42890625 23.08492187 -0.0703125 23.93359375 C0.8244937 26.15746715 0.8244937 26.15746715 3 27 C2.67 25.02 2.34 23.04 2 21 C3.32 21 4.64 21 6 21 C6.33 21.66 6.66 22.32 7 23 C6.67 20.03 6.34 17.06 6 14 C5.34 14 4.68 14 4 14 C3.32968281 12.0429132 2.66385317 10.08428887 2 8.125 C1.62875 7.03445312 1.2575 5.94390625 0.875 4.8203125 C0 2 0 2 0 0 Z " fill="#D8EDF8" transform="translate(219,178)"/>
<path d="M0 0 C0.33 0 0.66 0 1 0 C1 3.3 1 6.6 1 10 C1.66 10.33 2.32 10.66 3 11 C-1.45008638 16.31139343 -6.26216632 18.36069897 -13.11328125 19.28515625 C-20.5849878 19.61884412 -26.14436725 16.14178902 -32 12 C-28.51153178 9.85496316 -25.75594122 9.76645338 -21.703125 9.8046875 C-19.89521484 9.81435547 -19.89521484 9.81435547 -18.05078125 9.82421875 C-16.16939453 9.84935547 -16.16939453 9.84935547 -14.25 9.875 C-12.98027344 9.88402344 -11.71054688 9.89304687 -10.40234375 9.90234375 C-7.26803907 9.92590995 -4.13411459 9.95881168 -1 10 C-0.67 6.7 -0.34 3.4 0 0 Z " fill="#377DBE" transform="translate(144,108)"/>
<path d="M0 0 C1.98 0 3.96 0 6 0 C7.80279191 1.80279191 7.13036605 4.54047701 7.1328125 6.96875 C7.13410156 8.17917969 7.13539063 9.38960937 7.13671875 10.63671875 C7.13285156 11.91160156 7.12898438 13.18648437 7.125 14.5 C7.12886719 15.77488281 7.13273437 17.04976562 7.13671875 18.36328125 C7.13542969 19.57371094 7.13414062 20.78414062 7.1328125 22.03125 C7.13168457 23.15080078 7.13055664 24.27035156 7.12939453 25.42382812 C7 28 7 28 6 29 C4.02 29 2.04 29 0 29 C0 19.43 0 9.86 0 0 Z " fill="#DDF1FC" transform="translate(324,93)"/>
<path d="M0 0 C0.495 0.99 0.495 0.99 1 2 C0.09636719 2.04898438 -0.80726563 2.09796875 -1.73828125 2.1484375 C-2.91777344 2.22320312 -4.09726563 2.29796875 -5.3125 2.375 C-7.07013672 2.47941406 -7.07013672 2.47941406 -8.86328125 2.5859375 C-12.15699887 2.78613747 -12.15699887 2.78613747 -15 5 C-15.99 5 -16.98 5 -18 5 C-18 5.66 -18 6.32 -18 7 C-19.23743154 8.06107551 -20.51605398 9.0743979 -21.8125 10.0625 C-28.53421427 15.85790029 -29.0305503 21.98757765 -29.6875 30.5625 C-29.80327477 32.70773835 -29.91145163 34.85346545 -30 37 C-31.485 37.495 -31.485 37.495 -33 38 C-35.13198068 30.91632227 -35.26957498 21.70944163 -32.15625 14.90625 C-27.81324977 7.74616854 -23.04796386 3.07964588 -14.96484375 0.57421875 C-9.9662193 -0.39389429 -5.06423403 -0.31817177 0 0 Z " fill="#DEE7F2" transform="translate(135,74)"/>
<path d="M0 0 C5.61 0 11.22 0 17 0 C17 3.63 17 7.26 17 11 C11.39 11 5.78 11 0 11 C0 7.37 0 3.74 0 0 Z " fill="#1F74BB" transform="translate(170,90)"/>
<path d="M0 0 C4.29 0 8.58 0 13 0 C13 4.62 13 9.24 13 14 C8.71 14 4.42 14 0 14 C0 9.38 0 4.76 0 0 Z " fill="#31B6FC" transform="translate(552,91)"/>
<path d="M0 0 C14.19 0 28.38 0 43 0 C43 1.32 43 2.64 43 4 C28.48 4 13.96 4 -1 4 C-0.67 2.68 -0.34 1.36 0 0 Z " fill="#E3EFF7" transform="translate(105,184)"/>
<path d="M0 0 C1.98 0 3.96 0 6 0 C7 1 7 1 7.12025452 3.17030334 C7.11803391 4.12738693 7.11581329 5.08447052 7.11352539 6.07055664 C7.11344986 7.15160172 7.11337433 8.23264679 7.11329651 9.34645081 C7.10813522 10.5224736 7.10297394 11.6984964 7.09765625 12.91015625 C7.0962413 14.10732773 7.09482635 15.30449921 7.09336853 16.53794861 C7.08774979 20.37949066 7.07519411 24.22097543 7.0625 28.0625 C7.05748741 30.65950437 7.05292409 33.25650965 7.04882812 35.85351562 C7.03777427 42.23569679 7.02101792 48.6178443 7 55 C6.67 55 6.34 55 6 55 C6 37.51 6 20.02 6 2 C4.68 2 3.36 2 2 2 C2 19.49 2 36.98 2 55 C1.34 55 0.68 55 0 55 C0 36.85 0 18.7 0 0 Z " fill="#ADE2FE" transform="translate(588,129)"/>
<path d="M0 0 C1.39120471 0.00015906 2.78241534 0.00585033 4.17358398 0.01586914 C4.90463852 0.01728409 5.63569305 0.01869904 6.38890076 0.02015686 C8.73253406 0.02577131 11.07607313 0.03832617 13.41967773 0.05102539 C15.00496282 0.05603853 16.59024939 0.06060176 18.17553711 0.06469727 C22.06945383 0.07574542 25.96329979 0.09301967 29.85717773 0.11352539 C29.52717773 1.76352539 29.19717773 3.41352539 28.85717773 5.11352539 C18.29717773 5.11352539 7.73717773 5.11352539 -3.14282227 5.11352539 C-3.47282227 3.79352539 -3.80282227 2.47352539 -4.14282227 1.11352539 C-3.14282227 0.11352539 -3.14282227 0.11352539 0 0 Z " fill="#C8DEEE" transform="translate(107.142822265625,172.886474609375)"/>
<path d="M0 0 C9.75078864 -0.62460568 9.75078864 -0.62460568 14.375 1.6875 C15.24125 2.450625 16.1075 3.21375 17 4 C17.9075 4.763125 18.815 5.52625 19.75 6.3125 C23.81503064 11.16795326 24.4112374 16.58015888 24.25390625 22.7265625 C23.59856629 28.59437572 21.60483036 33.18910591 17 37 C15.515 36.505 15.515 36.505 14 36 C14.928125 34.7315625 14.928125 34.7315625 15.875 33.4375 C20.65600743 26.10435338 20.01679494 19.36794753 19 11 C18.34 11 17.68 11 17 11 C16.319375 10.071875 16.319375 10.071875 15.625 9.125 C13.89720611 6.86557722 12.59186772 6.07249699 10 5 C10 4.34 10 3.68 10 3 C6.7 2.67 3.4 2.34 0 2 C0 1.34 0 0.68 0 0 Z " fill="#EDF5FA" transform="translate(191,116)"/>
<path d="M0 0 C1.47906892 -0.02689216 2.95827483 -0.04634621 4.4375 -0.0625 C5.26121094 -0.07410156 6.08492187 -0.08570313 6.93359375 -0.09765625 C9 0 9 0 10 1 C10.09295815 2.44289787 10.11746513 3.89029785 10.11352539 5.33618164 C10.11344986 6.2570607 10.11337433 7.17793976 10.11329651 8.12672424 C10.10813522 9.12775681 10.10297394 10.12878937 10.09765625 11.16015625 C10.0962413 12.17975937 10.09482635 13.19936249 10.09336853 14.24986267 C10.08775097 17.52077107 10.0751955 20.79161213 10.0625 24.0625 C10.05748726 26.27408756 10.05292396 28.48567618 10.04882812 30.69726562 C10.03777584 36.13153357 10.02102063 41.56576197 10 47 C10.66 47.33 11.32 47.66 12 48 C9 50 9 50 6.8125 49.625 C6.214375 49.41875 5.61625 49.2125 5 49 C5 48.01 5 47.02 5 46 C5.66 46 6.32 46 7 46 C6.67 31.48 6.34 16.96 6 2 C3.03 1.505 3.03 1.505 0 1 C0 0.67 0 0.34 0 0 Z " fill="#FCFCFC" transform="translate(194,64)"/>
<path d="M0 0 C0.78503906 -0.01224609 1.57007813 -0.02449219 2.37890625 -0.03710938 C4.42063726 -0.04236254 6.46192251 0.0652982 8.5 0.1875 C10.5 2.1875 10.5 2.1875 10.5 8.1875 C3.57 8.1875 -3.36 8.1875 -10.5 8.1875 C-10.5 5.8775 -10.5 3.5675 -10.5 1.1875 C-7.21646451 -0.45426774 -3.60480362 0.00295961 0 0 Z " fill="#2F75B9" transform="translate(129.5,106.8125)"/>
<path d="M0 0 C8.58 0 17.16 0 26 0 C26 0.99 26 1.98 26 3 C6.73300355 4.00634481 -12.48967006 4.12638096 -31.77526855 4.06866455 C-35.65160555 4.05821704 -39.5279497 4.0538223 -43.40429688 4.04882812 C-50.93621657 4.03827732 -58.46810228 4.02133709 -66 4 C-66 3.67 -66 3.34 -66 3 C-44.22 3 -22.44 3 0 3 C0 2.01 0 1.02 0 0 Z " fill="#2667B0" transform="translate(162,58)"/>
<path d="M0 0 C2 3 2 3 2.8125 5.25 C5.73861631 12.02626934 9.31600493 15.88848505 16 19 C18.32508266 19.79315685 20.6094419 20.4145572 23 21 C22.67 21.66 22.34 22.32 22 23 C24.64 23.33 27.28 23.66 30 24 C30 24.33 30 24.66 30 25 C28.2709226 25.02725341 26.54171824 25.04650987 24.8125 25.0625 C23.36810547 25.07990234 23.36810547 25.07990234 21.89453125 25.09765625 C19.14423487 25.00486622 16.67520409 24.62111685 14 24 C14 23.34 14 22.68 14 22 C13.175 21.814375 12.35 21.62875 11.5 21.4375 C5.50101745 18.97363217 1.08508222 15.37883409 -1.625 9.4375 C-2.03629471 5.66729849 -1.51312327 3.44655855 0 0 Z " fill="#CEDFEF" transform="translate(105,106)"/>
<path d="M0 0 C0.99386719 0.00902344 1.98773438 0.01804687 3.01171875 0.02734375 C4.15060547 0.04474609 4.15060547 0.04474609 5.3125 0.0625 C5.3125 0.3925 5.3125 0.7225 5.3125 1.0625 C2.3425 1.0625 -0.6275 1.0625 -3.6875 1.0625 C-3.6875 1.7225 -3.6875 2.3825 -3.6875 3.0625 C-2.0375 3.0625 -0.3875 3.0625 1.3125 3.0625 C1.3125 3.3925 1.3125 3.7225 1.3125 4.0625 C-1.3275 4.0625 -3.9675 4.0625 -6.6875 4.0625 C-6.6875 4.7225 -6.6875 5.3825 -6.6875 6.0625 C-7.43 6.289375 -8.1725 6.51625 -8.9375 6.75 C-12.77896563 8.58342678 -14.80238412 11.29226824 -16.6875 15.0625 C-16.91608114 17.0999763 -17.09774278 19.14290303 -17.25 21.1875 C-17.33378906 22.28320312 -17.41757813 23.37890625 -17.50390625 24.5078125 C-17.56449219 25.35085937 -17.62507812 26.19390625 -17.6875 27.0625 C-18.0175 27.0625 -18.3475 27.0625 -18.6875 27.0625 C-19.0175 23.1025 -19.3475 19.1425 -19.6875 15.0625 C-20.0175 19.6825 -20.3475 24.3025 -20.6875 29.0625 C-21.0175 29.0625 -21.3475 29.0625 -21.6875 29.0625 C-21.88422365 27.33435839 -22.06946799 25.60490803 -22.25 23.875 C-22.35441406 22.91207031 -22.45882812 21.94914062 -22.56640625 20.95703125 C-22.68508751 18.12016623 -22.36515639 15.80826329 -21.6875 13.0625 C-21.0275 13.0625 -20.3675 13.0625 -19.6875 13.0625 C-19.5946875 12.2271875 -19.5946875 12.2271875 -19.5 11.375 C-17.74244832 6.37273754 -13.21871482 3.44734991 -8.6875 1.0625 C-5.53819107 0.01273036 -3.29935544 -0.03881595 0 0 Z " fill="#D3E3EF" transform="translate(194.6875,114.9375)"/>
<path d="M0 0 C1.29550781 -0.02578125 2.59101563 -0.0515625 3.92578125 -0.078125 C10.60047185 0.504091 14.24644399 3.4583343 18.6875 8.25 C19.43 8.889375 20.1725 9.52875 20.9375 10.1875 C23.7764782 13.53343859 23.79780676 16.57534277 23.515625 20.859375 C23.2783873 23.32943808 23.0036476 25.78891251 22.6875 28.25 C22.3575 28.25 22.0275 28.25 21.6875 28.25 C21.56632812 27.45335937 21.44515625 26.65671875 21.3203125 25.8359375 C20.81377797 22.63308071 20.25638482 19.44230331 19.6875 16.25 C19.501875 15.13625 19.31625 14.0225 19.125 12.875 C16.52370297 8.12480542 11.43716806 5.62483403 6.6875 3.25 C-0.03235833 2.67050973 -5.37937579 2.96784618 -11.3125 6.25 C-11.9725 6.91 -12.6325 7.57 -13.3125 8.25 C-15.4375 7.875 -15.4375 7.875 -17.3125 7.25 C-16.21331184 6.26524786 -15.1079398 5.28739527 -14 4.3125 C-13.38511719 3.76722656 -12.77023438 3.22195312 -12.13671875 2.66015625 C-8.38590146 -0.2392978 -4.57292191 0.054278 0 0 Z " fill="#5599CB" transform="translate(193.3125,112.75)"/>
<path d="M0 0 C1.258125 -0.04125 2.51625 -0.0825 3.8125 -0.125 C4.52019531 -0.14820313 5.22789062 -0.17140625 5.95703125 -0.1953125 C8 0 8 0 11 2 C9.4422692 5.82352106 7.08404742 8.29205593 4 11 C3.01 11 2.02 11 1 11 C1 10.34 1 9.68 1 9 C-0.94999129 9.19471111 -0.94999129 9.19471111 -3 10 C-4.28436734 11.9837767 -4.28436734 11.9837767 -5 14 C-5.36666667 6.66666667 -5.36666667 6.66666667 -3.625 3.5 C-2 2 -2 2 0 2 C0 1.34 0 0.68 0 0 Z " fill="#1F86CA" transform="translate(165,168)"/>
<path d="M0 0 C9.41631341 0.01184442 9.41631341 0.01184442 12.98046875 2.94140625 C16.12325462 6.50889292 16.41502068 8.04635541 16.35546875 12.69140625 C16.34644531 13.60148438 16.33742187 14.5115625 16.328125 15.44921875 C16.31652344 16.14789063 16.30492187 16.8465625 16.29296875 17.56640625 C15.63296875 17.89640625 14.97296875 18.22640625 14.29296875 18.56640625 C14.20660156 17.79554688 14.12023437 17.0246875 14.03125 16.23046875 C13.89074219 15.22757813 13.75023437 14.2246875 13.60546875 13.19140625 C13.47785156 12.19367188 13.35023438 11.1959375 13.21875 10.16796875 C12.54547625 7.34454409 12.54547625 7.34454409 9.8359375 6.27734375 C8.99675781 6.04273438 8.15757812 5.808125 7.29296875 5.56640625 C6.63296875 5.23640625 5.97296875 4.90640625 5.29296875 4.56640625 C3.4191727 4.49606856 1.54295773 4.48210405 -0.33203125 4.50390625 C-1.83636719 4.51744141 -1.83636719 4.51744141 -3.37109375 4.53125 C-4.52738281 4.54865234 -4.52738281 4.54865234 -5.70703125 4.56640625 C-4.04907459 1.70059113 -3.30907408 0.69237481 0 0 Z " fill="#EDF5FA" transform="translate(167.70703125,164.43359375)"/>
<path d="M0 0 C-0.51776621 4.10447392 -2.64627444 5.95699523 -5.5625 8.75 C-6.80193359 9.94882813 -6.80193359 9.94882813 -8.06640625 11.171875 C-8.70449219 11.77515625 -9.34257812 12.3784375 -10 13 C-13.16115776 11.63016497 -13.9927092 11.0109362 -16 8 C-16 6.68 -16 5.36 -16 4 C-14.68 4 -13.36 4 -12 4 C-12 4.66 -12 5.32 -12 6 C-8.45411365 4.00159973 -8.45411365 4.00159973 -5.4375 1.3125 C-4 0 -4 0 0 0 Z " fill="#D7EAF6" transform="translate(178,173)"/>
<path d="M0 0 C1.74672985 3.4934597 3 6.06845568 3 10 C2.34 10 1.68 10 1 10 C0.5978125 9.0409375 0.5978125 9.0409375 0.1875 8.0625 C-0.88667752 5.66868314 -0.88667752 5.66868314 -4 5 C-3.649375 6.0725 -3.29875 7.145 -2.9375 8.25 C-2.05319814 11.78720743 -1.97119449 12.74811124 -3 16 C-4.0076952 14.2335343 -5.00591714 12.46166177 -6 10.6875 C-6.556875 9.70136719 -7.11375 8.71523437 -7.6875 7.69921875 C-9 5 -9 5 -9 2 C-8.34 2 -7.68 2 -7 2 C-7 1.34 -7 0.68 -7 0 C-3.98968256 -0.93423645 -3.13349732 -1.04449911 0 0 Z " fill="#349AD3" transform="translate(216,173)"/>
<path d="M0 0 C4.09333905 -0.07408587 8.18641933 -0.1285704 12.28027344 -0.16479492 C13.67324622 -0.17989358 15.06617138 -0.20037444 16.45898438 -0.22631836 C18.45942885 -0.26265122 20.46021827 -0.27811192 22.4609375 -0.29296875 C24.26763916 -0.31653442 24.26763916 -0.31653442 26.11083984 -0.34057617 C27.0642627 -0.22818604 28.01768555 -0.1157959 29 0 C31.20192224 3.30288336 31.23959968 4.27462727 31.1953125 8.10546875 C31.18886719 9.08837891 31.18242187 10.07128906 31.17578125 11.08398438 C31.15902344 12.10814453 31.14226562 13.13230469 31.125 14.1875 C31.11597656 15.22326172 31.10695313 16.25902344 31.09765625 17.32617188 C31.07407983 19.88421306 31.03820876 22.44213553 31 25 C26.38 25 21.76 25 17 25 C16.505 20.05 16.505 20.05 16 15 C16.66 15 17.32 15 18 15 C18 17.97 18 20.94 18 24 C21.96 24 25.92 24 30 24 C29.505 14.1 29.505 14.1 29 4 C28.34 3.67 27.68 3.34 27 3 C27 2.34 27 1.68 27 1 C17.76 1.33 8.52 1.66 -1 2 C-0.67 1.34 -0.34 0.68 0 0 Z " fill="#7ACFFD" transform="translate(401,115)"/>
<path d="M0 0 C2.31373491 2.31373491 2.36630473 2.90394929 2.5 6.0625 C2.38958029 11.74911502 -0.20459587 15.88250882 -4 20 C-7.39277108 22.10120482 -7.39277108 22.10120482 -10.25 21.625 C-11.11625 21.315625 -11.11625 21.315625 -12 21 C-11.01 21 -10.02 21 -9 21 C-9 20.34 -9 19.68 -9 19 C-9.66 18.67 -10.32 18.34 -11 18 C-10.05125 17.54625 -9.1025 17.0925 -8.125 16.625 C-5.74805592 15.08895595 -5.07831795 14.23132801 -4.15625 11.5078125 C-3.67457435 9.00734921 -3.28010122 6.53056963 -3 4 C-2.67 4 -2.34 4 -2 4 C-1.67 5.98 -1.34 7.96 -1 10 C-0.67 6.7 -0.34 3.4 0 0 Z " fill="#EAF2F6" transform="translate(184,172)"/>
<path d="M0 0 C0.68513672 -0.01224609 1.37027344 -0.02449219 2.07617188 -0.03710938 C3.86484112 -0.04237533 5.65298848 0.06549979 7.4375 0.1875 C8.0975 0.8475 8.7575 1.5075 9.4375 2.1875 C10.613125 2.6825 11.78875 3.1775 13 3.6875 C16.4375 5.1875 16.4375 5.1875 17.4375 7.1875 C16.7775 7.1875 16.1175 7.1875 15.4375 7.1875 C15.4375 7.8475 15.4375 8.5075 15.4375 9.1875 C9.78491784 7.34712441 9.78491784 7.34712441 7.125 6.125 C3.97257277 5.02531608 1.4540371 4.98933435 -1.875 5.0625 C-2.94363281 5.08054687 -4.01226562 5.09859375 -5.11328125 5.1171875 C-6.32564453 5.15199219 -6.32564453 5.15199219 -7.5625 5.1875 C-7.2325 4.5275 -6.9025 3.8675 -6.5625 3.1875 C-3.83984375 2.7734375 -3.83984375 2.7734375 -0.5 2.5625 C0.60472656 2.48773438 1.70945313 2.41296875 2.84765625 2.3359375 C3.70230469 2.28695312 4.55695313 2.23796875 5.4375 2.1875 C3.54174749 2.16028824 1.64588021 2.14100864 -0.25 2.125 C-1.30574219 2.11339844 -2.36148438 2.10179688 -3.44921875 2.08984375 C-6.28660262 2.17884575 -8.8063919 2.53810162 -11.5625 3.1875 C-9.43919252 -1.05911497 -4.17152993 0.00394658 0 0 Z " fill="#D0DDED" transform="translate(129.5625,72.8125)"/>
<path d="M0 0 C1.98 0.99 1.98 0.99 4 2 C4 2.66 4 3.32 4 4 C4.99 4.33 5.98 4.66 7 5 C8.203125 8.0546875 8.203125 8.0546875 9.25 11.875 C9.60578125 13.13054687 9.9615625 14.38609375 10.328125 15.6796875 C11 19 11 19 10 22 C7.10067643 19.60490662 6.49831724 17.68754757 6 14 C5.34 14 4.68 14 4 14 C3.32968281 12.0429132 2.66385317 10.08428887 2 8.125 C1.62875 7.03445312 1.2575 5.94390625 0.875 4.8203125 C0 2 0 2 0 0 Z " fill="#D8EDF8" transform="translate(219,178)"/>
<path d="M0 0 C2.90802461 2.21928194 4.95312762 3.92969143 7 7 C7.1875 10.125 7.1875 10.125 7 13 C6.67 13.33 6.34 13.66 6 14 C4.35 14 2.7 14 1 14 C0.67 10.7 0.34 7.4 0 4 C-4.29 3.67 -8.58 3.34 -13 3 C-13 2.67 -13 2.34 -13 2 C-8.71 2 -4.42 2 0 2 C0 1.34 0 0.68 0 0 Z " fill="#CBECFF" transform="translate(411,157)"/>
<path d="M0 0 C1.98 0 3.96 0 6 0 C6.02686553 1.97909398 6.04633375 3.95828971 6.0625 5.9375 C6.07410156 7.03964844 6.08570313 8.14179688 6.09765625 9.27734375 C6 12 6 12 5 13 C3.35 13 1.7 13 0 13 C0 8.71 0 4.42 0 0 Z " fill="#EBF8FF" transform="translate(372,130)"/>
<path d="M0 0 C0.33 0 0.66 0 1 0 C1.66 1.98 2.32 3.96 3 6 C6.59835033 6.19990835 8.93853104 5.96808719 12 4 C12.33 3.34 12.66 2.68 13 2 C13.35430394 5.18873549 13.25953249 6.61589191 11.4375 9.3125 C8.07228821 11.64226201 6.01027077 11.57289582 2 11 C-0.4375 9.3125 -0.4375 9.3125 -2 7 C-2.375 4.375 -2.375 4.375 -2 2 C-1.34 1.34 -0.68 0.68 0 0 Z " fill="#E4EDF5" transform="translate(124,90)"/>
<path d="M0 0 C0.66 0.33 1.32 0.66 2 1 C-0.15216861 5.21076466 -1.73281104 7.26004644 -6.25 8.875 C-10.6082955 10.11093454 -14.49293046 10.24584016 -19 10 C-19.33 9.34 -19.66 8.68 -20 8 C-18.97519531 7.75765625 -17.95039063 7.5153125 -16.89453125 7.265625 C-15.533686 6.92775997 -14.17301803 6.58918031 -12.8125 6.25 C-11.80219727 6.01410156 -11.80219727 6.01410156 -10.77148438 5.7734375 C-6.31618046 4.64331163 -3.37076637 3.11550445 0 0 Z " fill="#F2F6FB" transform="translate(146,120)"/>
<path d="M0 0 C4.24846075 0.47205119 6.26819288 2.88877522 9 6 C9 6.66 9 7.32 9 8 C9.66 8 10.32 8 11 8 C11.33 9.65 11.66 11.3 12 13 C11.01 12.67 10.02 12.34 9 12 C8.67 13.32 8.34 14.64 8 16 C7.75765625 15.40832031 7.5153125 14.81664063 7.265625 14.20703125 C5.29701264 9.56564904 3.287113 5.87409746 0 2 C0 1.34 0 0.68 0 0 Z " fill="#DBE7F3" transform="translate(145,80)"/>
<path d="M0 0 C1.828125 0.1640625 1.828125 0.1640625 4 1 C5.484375 3.3984375 5.484375 3.3984375 6.75 6.375 C7.39195312 7.84066406 7.39195312 7.84066406 8.046875 9.3359375 C9 12 9 12 9 15 C7.68 15 6.36 15 5 15 C4.15733289 13.25447527 3.32619962 11.5033792 2.5 9.75 C2.0359375 8.77546875 1.571875 7.8009375 1.09375 6.796875 C0 4 0 4 0 0 Z " fill="#E1F0F9" transform="translate(212,178)"/>
<path d="M0 0 C1.66611905 -0.042721 3.33382885 -0.04063832 5 0 C6 1 6 1 6.09765625 3.06640625 C6.06510417 5.37760417 6.03255208 7.68880208 6 10 C10.29 10 14.58 10 19 10 C19 10.33 19 10.66 19 11 C15.04 11 11.08 11 7 11 C6.67 11.66 6.34 12.32 6 13 C4.98528829 11.78294994 3.9887539 10.55073116 3 9.3125 C2.443125 8.62800781 1.88625 7.94351563 1.3125 7.23828125 C-0.22741897 4.61216944 -0.25168194 2.99396644 0 0 Z " fill="#D2EFFF" transform="translate(412,130)"/>
<path d="M0 0 C0.33 0.99 0.66 1.98 1 3 C0.34 3.66 -0.32 4.32 -1 5 C-0.67 5.66 -0.34 6.32 0 7 C-8.261959 11.59225513 -8.261959 11.59225513 -13 11 C-12.01 10.67 -11.02 10.34 -10 10 C-10 9.34 -10 8.68 -10 8 C-11.98 8 -13.96 8 -16 8 C-16 7.67 -16 7.34 -16 7 C-15.01257813 6.82984375 -14.02515625 6.6596875 -13.0078125 6.484375 C-11.72648438 6.24203125 -10.44515625 5.9996875 -9.125 5.75 C-7.84882813 5.51796875 -6.57265625 5.2859375 -5.2578125 5.046875 C-1.91662203 4.34008964 -1.91662203 4.34008964 -0.5546875 1.890625 C-0.37164062 1.26671875 -0.18859375 0.6428125 0 0 Z " fill="#D8EBF6" transform="translate(207,147)"/>
<path d="M0 0 C2 3 2 3 2.9375 5.4375 C3.99897105 7.99751842 5.33630094 9.80694215 7 12 C7 12.66 7 13.32 7 14 C6.34 14 5.68 14 5 14 C4.67 14.66 4.34 15.32 4 16 C0.88891952 14.2370544 0.02091645 13.05038963 -1.375 9.6875 C-2.05401473 5.68131307 -1.61289667 3.6738202 0 0 Z " fill="#DEE8F3" transform="translate(105,106)"/>
<path d="M0 0 C0.99 0.33 1.98 0.66 3 1 C2.01 2.98 1.02 4.96 0 7 C-0.66 7 -1.32 7 -2 7 C-2.2494783 14.29031024 -1.72330907 20.90673679 0 28 C-3 26 -3 26 -4 23 C-5.11557023 6.39446279 -5.11557023 6.39446279 0 0 Z " fill="#5397CA" transform="translate(175,121)"/>
<path d="M0 0 C0.06058594 0.74765625 0.12117187 1.4953125 0.18359375 2.265625 C0.26738281 3.25046875 0.35117188 4.2353125 0.4375 5.25 C0.51871094 6.22453125 0.59992188 7.1990625 0.68359375 8.203125 C0.95074584 10.56461753 1.35371968 12.71901065 2 15 C1.34 15 0.68 15 0 15 C-0.33 15.99 -0.66 16.98 -1 18 C-2.85131483 14.07142246 -3.22004943 11.01224888 -3.125 6.6875 C-3.10695312 5.61886719 -3.08890625 4.55023438 -3.0703125 3.44921875 C-3.04710937 2.64097656 -3.02390625 1.83273438 -3 1 C-1 0 -1 0 0 0 Z " fill="#E9F2F8" transform="translate(170,132)"/>
<path d="M0 0 C2.5 0.125 2.5 0.125 3.5 1.125 C3.625 4.125 3.625 4.125 3.5 7.125 C2.5 8.125 2.5 8.125 0 8.25 C-2.5 8.125 -2.5 8.125 -3.5 7.125 C-3.625 4.125 -3.625 4.125 -3.5 1.125 C-2.5 0.125 -2.5 0.125 0 0 Z " fill="#3E7BBB" transform="translate(129.5,88.875)"/>
<path d="M0 0 C3.96 0 7.92 0 12 0 C12 0.33 12 0.66 12 1 C11.30132812 1.04898438 10.60265625 1.09796875 9.8828125 1.1484375 C8.97273438 1.22320312 8.06265625 1.29796875 7.125 1.375 C6.22007812 1.44460937 5.31515625 1.51421875 4.3828125 1.5859375 C1.82058097 1.79568132 1.82058097 1.79568132 0 4 C0.66 4.66 1.32 5.32 2 6 C0.35 7.32 -1.3 8.64 -3 10 C-3.33 9.34 -3.66 8.68 -4 8 C-6.33075929 8.95865509 -6.33075929 8.95865509 -8 12 C-7.58682778 7.17965738 -5.61980085 5.09007389 -2 2 C-1.34 2 -0.68 2 0 2 C0 1.34 0 0.68 0 0 Z " fill="#B6D6ED" transform="translate(163,164)"/>
<path d="M0 0 C1.231394 2.46278801 1.07159196 4.2795055 1 7 C1.33 7 1.66 7 2 7 C2 11.62 2 16.24 2 21 C1.67 21 1.34 21 1 21 C0.67 17.7 0.34 14.4 0 11 C-0.66 11 -1.32 11 -2 11 C-2 14.3 -2 17.6 -2 21 C-2.33 21 -2.66 21 -3 21 C-3.23191047 14.10710557 -3.11022849 7.6233449 -1 1 C-0.67 0.67 -0.34 0.34 0 0 Z " fill="#AECEE5" transform="translate(169,122)"/>
<path d="M0 0 C0.98033203 0.23009766 0.98033203 0.23009766 1.98046875 0.46484375 C5.75492159 1.13379594 9.48905996 1.35407297 13.3125 1.5625 C14.05306641 1.60568359 14.79363281 1.64886719 15.55664062 1.69335938 C17.37091464 1.79870432 19.1854355 1.89978316 21 2 C21 2.33 21 2.66 21 3 C18.04170322 3.167338 15.08336635 3.33390052 12.125 3.5 C10.86236328 3.57154297 10.86236328 3.57154297 9.57421875 3.64453125 C8.36572266 3.71220703 8.36572266 3.71220703 7.1328125 3.78125 C6.01737061 3.8440918 6.01737061 3.8440918 4.87939453 3.90820312 C3.58744125 3.9713071 2.29349349 4 1 4 C-0.58272601 5.58272601 -0.34735747 7.38034003 -0.5625 9.5625 C-0.64628906 10.38878906 -0.73007813 11.21507813 -0.81640625 12.06640625 C-0.87699219 12.70449219 -0.93757813 13.34257813 -1 14 C-1.33 14 -1.66 14 -2 14 C-2.05410687 12.22950311 -2.09284119 10.45853151 -2.125 8.6875 C-2.14820312 7.70136719 -2.17140625 6.71523437 -2.1953125 5.69921875 C-2 3 -2 3 0 0 Z " fill="#B2CBE4" transform="translate(117,104)"/>
<path d="M0 0 C0.33 0 0.66 0 1 0 C1.33 4.95 1.66 9.9 2 15 C1.01 15.33 0.02 15.66 -1 16 C-1.82791734 13.0923543 -2.16193659 10.45909481 -2.1875 7.4375 C-2.20167969 6.67308594 -2.21585937 5.90867187 -2.23046875 5.12109375 C-2 3 -2 3 0 0 Z " fill="#EFF3F7" transform="translate(103,96)"/>
<path d="M0 0 C1.76462683 3.08809695 2 4.23312136 2 8 C0.68 8.33 -0.64 8.66 -2 9 C-2 8.34 -2 7.68 -2 7 C-2.66 7 -3.32 7 -4 7 C-4.33 5.02 -4.66 3.04 -5 1 C-2 0 -2 0 0 0 Z " fill="#3298D4" transform="translate(208,161)"/>
<path d="M0 0 C0.33 0 0.66 0 1 0 C1 3.3 1 6.6 1 10 C-0.65 10 -2.3 10 -4 10 C-4 7.36 -4 4.72 -4 2 C-2.68 2 -1.36 2 0 2 C0 1.34 0 0.68 0 0 Z " fill="#1C72BB" transform="translate(92,179)"/>
<path d="M0 0 C1.63001953 0.01353516 1.63001953 0.01353516 3.29296875 0.02734375 C4.12441406 0.03894531 4.95585937 0.05054687 5.8125 0.0625 C6.1425 0.7225 6.4725 1.3825 6.8125 2.0625 C5.90886719 2.11148438 5.00523437 2.16046875 4.07421875 2.2109375 C2.89472656 2.28570312 1.71523437 2.36046875 0.5 2.4375 C-1.25763672 2.54191406 -1.25763672 2.54191406 -3.05078125 2.6484375 C-6.34449887 2.84863747 -6.34449887 2.84863747 -9.1875 5.0625 C-11.375 4.6875 -11.375 4.6875 -13.1875 4.0625 C-8.73720497 0.53295567 -5.63869785 -0.06063116 0 0 Z " fill="#F9FBFC" transform="translate(129.1875,73.9375)"/>
<path d="M0 0 C2.41486943 2.41486943 2.2961925 3.12707789 2.3125 6.4375 C2.32925781 7.21996094 2.34601563 8.00242188 2.36328125 8.80859375 C1.91522445 11.51138797 1.19670758 12.40005607 -1 14 C-1.99 14 -2.98 14 -4 14 C-3.67 10.7 -3.34 7.4 -3 4 C-2.67 4 -2.34 4 -2 4 C-1.67 5.98 -1.34 7.96 -1 10 C-0.67 6.7 -0.34 3.4 0 0 Z " fill="#B4D7ED" transform="translate(184,172)"/>
<path d="M0 0 C0.61617187 0.34289062 1.23234375 0.68578125 1.8671875 1.0390625 C0.10473528 2.2389663 -1.66808231 3.42365767 -3.4453125 4.6015625 C-4.92451172 5.59349609 -4.92451172 5.59349609 -6.43359375 6.60546875 C-7.32433594 7.07855469 -8.21507812 7.55164063 -9.1328125 8.0390625 C-10.1228125 7.7090625 -11.1128125 7.3790625 -12.1328125 7.0390625 C-11.5140625 6.7915625 -10.8953125 6.5440625 -10.2578125 6.2890625 C-7.99534756 5.21762521 -7.99534756 5.21762521 -7.1328125 3.0390625 C-6.1328125 1.0390625 -6.1328125 1.0390625 -4.2578125 -0.3359375 C-2.1328125 -0.9609375 -2.1328125 -0.9609375 0 0 Z " fill="#1B9DDA" transform="translate(224.1328125,233.9609375)"/>
<path d="M0 0 C0.99 0 1.98 0 3 0 C5.15305957 3.85756507 6.39253254 6.55129785 6 11 C5.01 10.67 4.02 10.34 3 10 C1.25327015 6.5065403 0 3.93154432 0 0 Z " fill="#F2F9FC" transform="translate(209,188)"/>
<path d="M0 0 C0.33 1.32 0.66 2.64 1 4 C1.99 3.67 2.98 3.34 4 3 C3.34 7.62 2.68 12.24 2 17 C1.67 17 1.34 17 1 17 C0.67 14.03 0.34 11.06 0 8 C-0.66 8.66 -1.32 9.32 -2 10 C-1.125 2.25 -1.125 2.25 0 0 Z " fill="#C2D1E3" transform="translate(103,89)"/>
<path d="M0 0 C0.66 0.33 1.32 0.66 2 1 C-2.95 5.95 -7.9 10.9 -13 16 C-13 11.92412524 -11.74008328 11.01409161 -9 8 C-6.38537946 5.60368758 -3.70031809 3.29866895 -1 1 C-0.67 0.67 -0.34 0.34 0 0 Z " fill="#36AEE4" transform="translate(251,211)"/>
<path d="M0 0 C3 2 3 2 3.75 4.5 C4.07755191 9.0857268 3.58435548 13.45101735 3 18 C2.67 18 2.34 18 2 18 C1.86722656 17.19175781 1.73445312 16.38351563 1.59765625 15.55078125 C1.42105469 14.48214844 1.24445313 13.41351563 1.0625 12.3125 C0.88847656 11.25675781 0.71445313 10.20101562 0.53515625 9.11328125 C0.19304975 7.12307047 -0.19112483 5.13934472 -0.62890625 3.16796875 C-0.75136719 2.45253906 -0.87382812 1.73710938 -1 1 C-0.67 0.67 -0.34 0.34 0 0 Z " fill="#7AB8E0" transform="translate(213,123)"/>
<path d="M0 0 C2 1 2 1 3 3 C1.88625 3.45375 0.7725 3.9075 -0.375 4.375 C-3.96199008 5.72465986 -3.96199008 5.72465986 -6 8 C-8.125 7.625 -8.125 7.625 -10 7 C-8.90081184 6.01524786 -7.7954398 5.03739527 -6.6875 4.0625 C-6.07261719 3.51722656 -5.45773438 2.97195312 -4.82421875 2.41015625 C-3 1 -3 1 0 0 Z " fill="#68A3D0" transform="translate(186,113)"/>
<path d="M0 0 C0 1.66666667 0 3.33333333 0 5 C0.33 5.66 0.66 6.32 1 7 C-0.30406884 9.01920337 -1.63823419 11.01924973 -3 13 C-3.33 13 -3.66 13 -4 13 C-3.91266424 11.39482903 -3.80447776 9.79078338 -3.6875 8.1875 C-3.62949219 7.29417969 -3.57148438 6.40085937 -3.51171875 5.48046875 C-2.93686419 2.69396 -2.1793144 1.75864246 0 0 Z " fill="#D5E4F0" transform="translate(173,117)"/>
<path d="M0 0 C0.66 0 1.32 0 2 0 C1.42647107 3.87132028 -0.48704352 6.08172796 -3 9 C-4.32 8.34 -5.64 7.68 -7 7 C-4.66666667 4.66666667 -2.33333333 2.33333333 0 0 Z " fill="#F2F6FA" transform="translate(178,114)"/>
<path d="M0 0 C0.33 0 0.66 0 1 0 C1.22223194 2.74086056 1.34781139 4.43963721 -0.125 6.8125 C-2.77535957 8.49106106 -4.93246424 8.20450238 -8 8 C-8 7.34 -8 6.68 -8 6 C-5.36107824 4.21694476 -3.02821137 3.00940379 0 2 C0 1.34 0 0.68 0 0 Z " fill="#F2F6FA" transform="translate(136,92)"/>
<path d="M0 0 C-2.22324926 1.1793149 -4.45246639 2.34340918 -6.6875 3.5 C-7.31333984 3.83386719 -7.93917969 4.16773438 -8.58398438 4.51171875 C-12.20481317 6.3695262 -14.91404255 7.43750214 -19 7 C-16.03312999 5.35173889 -13.34373475 4.55728913 -10 4 C-9.67 3.01 -9.34 2.02 -9 1 C-2.63157895 -1.31578947 -2.63157895 -1.31578947 0 0 Z " fill="#AAD7EC" transform="translate(217,242)"/>
<path d="M0 0 C0.66 0 1.32 0 2 0 C2 0.66 2 1.32 2 2 C2.66 2 3.32 2 4 2 C4.66 4.97 5.32 7.94 6 11 C2.5126363 8.79133632 1.18575914 6.95253048 0 3 C0 2.01 0 1.02 0 0 Z " fill="#F8FCFE" transform="translate(224,189)"/>
<path d="M0 0 C3.93846154 3.32307692 3.93846154 3.32307692 4.25 6.75 C4.1675 7.4925 4.085 8.235 4 9 C2.68 9 1.36 9 0 9 C0 6.03 0 3.06 0 0 Z " fill="#FBFDFF" transform="translate(413,161)"/>
<path d="M0 0 C3.86093856 1.33135812 6.24132985 4.0880704 9 7 C8.67 7.66 8.34 8.32 8 9 C6.70684939 8.04367001 5.41553147 7.08486149 4.125 6.125 C3.40570313 5.59132813 2.68640625 5.05765625 1.9453125 4.5078125 C0 3 0 3 -2 1 C-1.34 0.67 -0.68 0.34 0 0 Z " fill="#5CA4D6" transform="translate(204,115)"/>
<path d="M0 0 C1.73267972 2.59901958 2.48482049 4.13842116 3.25 7.0625 C3.44078125 7.75472656 3.6315625 8.44695312 3.828125 9.16015625 C3.88484375 9.76730469 3.9415625 10.37445313 4 11 C3.34 11.66 2.68 12.32 2 13 C0.68 9.7 -0.64 6.4 -2 3 C-1.34 3 -0.68 3 0 3 C0 2.01 0 1.02 0 0 Z " fill="#4FADE0" transform="translate(219,180)"/>
<path d="M0 0 C0.33 0 0.66 0 1 0 C1.13277344 0.80824219 1.26554688 1.61648437 1.40234375 2.44921875 C1.57894531 3.51785156 1.75554687 4.58648437 1.9375 5.6875 C2.11152344 6.74324219 2.28554687 7.79898438 2.46484375 8.88671875 C2.93167121 11.60249604 3.44422616 14.30124235 4 17 C1 15 1 15 0 12 C-0.068991 9.93854893 -0.08467727 7.87498599 -0.0625 5.8125 C-0.05347656 4.72582031 -0.04445312 3.63914063 -0.03515625 2.51953125 C-0.02355469 1.68808594 -0.01195312 0.85664063 0 0 Z " fill="#3D90CC" transform="translate(171,132)"/>
<path d="M0 0 C5.98511371 0.34302035 10.75117306 0.82307843 16 4 C16 4.33 16 4.66 16 5 C10.13190493 4.47606294 5.45126259 3.23891142 0 1 C0 0.67 0 0.34 0 0 Z " fill="#749CCB" transform="translate(185,9)"/>
<path d="M0 0 C2.35953094 2.35953094 2.49141413 3.77895617 3 7 C3.99 7.33 4.98 7.66 6 8 C4.35 8.33 2.7 8.66 1 9 C-0.625 6.75 -0.625 6.75 -2 4 C-1.1875 1.6875 -1.1875 1.6875 0 0 Z " fill="#61B6E3" transform="translate(214,186)"/>
<path d="M0 0 C0.33 0 0.66 0 1 0 C1.1953125 2.01822917 1.390625 4.03645833 1.5859375 6.0546875 C1.86374749 8.22668245 1.86374749 8.22668245 4 10 C3.625 12.625 3.625 12.625 3 15 C2.34 14.01 1.68 13.02 1 12 C0.01 12.495 0.01 12.495 -1 13 C-0.67 8.71 -0.34 4.42 0 0 Z " fill="#C6E1F2" transform="translate(217,133)"/>
<path d="M0 0 C1.8125 0.125 1.8125 0.125 4 1 C5.75 4.0625 5.75 4.0625 7 7 C4.08482708 5.92598892 2.22189824 5.22189824 0 3 C0 2.01 0 1.02 0 0 Z " fill="#E9F0F7" transform="translate(110,120)"/>
<path d="M0 0 C2.75717702 1.37858851 3.46321746 3.37466315 5 6 C5.66 6.66 6.32 7.32 7 8 C6.625 10.625 6.625 10.625 6 13 C3.87838666 10.87838666 3.07013751 9.2266841 1.875 6.5 C1.52179688 5.7059375 1.16859375 4.911875 0.8046875 4.09375 C0 2 0 2 0 0 Z " fill="#5EB1DF" transform="translate(218,169)"/>
<path d="M0 0 C3.3 0.33 6.6 0.66 10 1 C10 1.66 10 2.32 10 3 C5.94568308 4.15837626 3.78187881 3.83691257 0 2 C0 1.34 0 0.68 0 0 Z " fill="#FAFCFE" transform="translate(187,154)"/>
<path d="M0 0 C0.66 0.33 1.32 0.66 2 1 C0.515 3.475 0.515 3.475 -1 6 C-1.33 5.01 -1.66 4.02 -2 3 C-3.32 3.99 -4.64 4.98 -6 6 C-6.66 5.67 -7.32 5.34 -8 5 C-5.31158141 2.74754119 -3.35358125 1.11786042 0 0 Z " fill="#C7DDEE" transform="translate(182,111)"/>
<path d="M0 0 C5.61 0 11.22 0 17 0 C17 0.33 17 0.66 17 1 C15.95199219 1.04898438 14.90398437 1.09796875 13.82421875 1.1484375 C12.44528646 1.22348143 11.0663815 1.29902857 9.6875 1.375 C8.65206055 1.42140625 8.65206055 1.42140625 7.59570312 1.46875 C3.93009211 1.68124919 2.12099208 1.91933861 -1 4 C-0.67 2.68 -0.34 1.36 0 0 Z " fill="#2C71B7" transform="translate(121,107)"/>
<path d="M0 0 C0.66 0 1.32 0 2 0 C2.33 1.32 2.66 2.64 3 4 C2.34 4 1.68 4 1 4 C1 7.96 1 11.92 1 16 C0.67 16 0.34 16 0 16 C0 10.72 0 5.44 0 0 Z " fill="#2096D6" transform="translate(205,186)"/>
<path d="M0 0 C0 0.66 0 1.32 0 2 C0.66 2.66 1.32 3.32 2 4 C-0.35438733 5.42944945 -1.48032433 6.08661261 -4.25 5.625 C-4.8275 5.41875 -5.405 5.2125 -6 5 C-5.01 5 -4.02 5 -3 5 C-3 4.34 -3 3.68 -3 3 C-3.66 2.67 -4.32 2.34 -5 2 C-2 0 -2 0 0 0 Z " fill="#D2E5F0" transform="translate(178,188)"/>
<path d="M0 0 C1.37562854 1.28965176 2.70766393 2.62689293 4 4 C4 4.66 4 5.32 4 6 C3.34 6 2.68 6 2 6 C1.67 6.66 1.34 7.32 1 8 C-0.32 7.01 -1.64 6.02 -3 5 C-2.67 4.34 -2.34 3.68 -2 3 C-0.515 3.99 -0.515 3.99 1 5 C0.67 3.35 0.34 1.7 0 0 Z " fill="#B3CBE4" transform="translate(108,114)"/>
<path d="M0 0 C0.33 0.66 0.66 1.32 1 2 C1.99 2.33 2.98 2.66 4 3 C3.67 4.65 3.34 6.3 3 8 C2.34 6.68 1.68 5.36 1 4 C0.01 5.32 -0.98 6.64 -2 8 C-1.125 1.125 -1.125 1.125 0 0 Z " fill="#BCCEE3" transform="translate(123,87)"/>
<path d="M0 0 C1 3 1 3 -0.3125 5.6875 C-0.869375 6.450625 -1.42625 7.21375 -2 8 C-2.66 8 -3.32 8 -4 8 C-3.50168276 4.31245243 -2.89932357 2.39509338 0 0 Z " fill="#F5F8FB" transform="translate(108,85)"/>
<path d="M0 0 C0.66 0.33 1.32 0.66 2 1 C-0.88341534 5.21422242 -3.04303419 6.76075855 -8 8 C-5.33333333 5.33333333 -2.66666667 2.66666667 0 0 Z " fill="#6982B7" transform="translate(84,28)"/>
<path d="M0 0 C0.33 0 0.66 0 1 0 C1 3.3 1 6.6 1 10 C1.66 10.33 2.32 10.66 3 11 C2.67 11.66 2.34 12.32 2 13 C0.68 12.34 -0.64 11.68 -2 11 C-1.67 10.67 -1.34 10.34 -1 10 C-0.76712992 8.31816052 -0.58735834 6.6287584 -0.4375 4.9375 C-0.35371094 4.01839844 -0.26992187 3.09929687 -0.18359375 2.15234375 C-0.12300781 1.44207031 -0.06242188 0.73179688 0 0 Z " fill="#4186C3" transform="translate(144,108)"/>
<path d="M0 0 C3.00617269 3.00617269 2.59585316 5.82381598 3 10 C2.34 9.67 1.68 9.34 1 9 C1 8.34 1 7.68 1 7 C0.01 6.67 -0.98 6.34 -2 6 C-1.01 6 -0.02 6 1 6 C0.67 4.02 0.34 2.04 0 0 Z " fill="#53B3E3" transform="translate(224,192)"/>
<path d="M0 0 C2.12046792 3.53411321 2.53199289 6.94393835 3 11 C0.50875735 8.83370204 -0.59924482 7.30623023 -1 4 C-0.5625 1.75 -0.5625 1.75 0 0 Z " fill="#3CA2DB" transform="translate(211,178)"/>
<path d="M0 0 C0.66 0 1.32 0 2 0 C2 2.97 2 5.94 2 9 C1.01 8.67 0.02 8.34 -1 8 C-0.67 5.36 -0.34 2.72 0 0 Z " fill="#F5FAFD" transform="translate(219,134)"/>
<path d="M0 0 C1.32 0.66 2.64 1.32 4 2 C0.04 3.98 0.04 3.98 -4 6 C-4 5.01 -4 4.02 -4 3 C-2 1.3125 -2 1.3125 0 0 Z " fill="#3084C4" transform="translate(185,106)"/>
<path d="M0 0 C0.66 0.33 1.32 0.66 2 1 C0.75453595 4.73639216 -0.63404953 5.18756513 -4 7 C-3.43628586 3.73045798 -2.50037734 2.17424117 0 0 Z " fill="#3E8CC6" transform="translate(184,121)"/>
<path d="M0 0 C0.66 0.33 1.32 0.66 2 1 C0.7260411 3.03833424 -0.61061923 5.03852126 -2 7 C-2.66 7 -3.32 7 -4 7 C-3.6875 4.625 -3.6875 4.625 -3 2 C-2.01 1.34 -1.02 0.68 0 0 Z " fill="#E4EEF7" transform="translate(146,120)"/>
<path d="M0 0 C0.33 0 0.66 0 1 0 C1 1.98 1 3.96 1 6 C-0.32 6 -1.64 6 -3 6 C-2.42655063 3.13275314 -2.1385485 2.1385485 0 0 Z " fill="#21ACF5" transform="translate(563,98)"/>
</svg>
